<svg width="73" height="72" viewBox="0 0 73 72" fill="none" xmlns="http://www.w3.org/2000/svg">
<g opacity="0.2">
<path d="M11.1691 38.5264C9.34173 41.0451 9.13421 43.7062 10.6404 46.4512C11.5626 48.1381 12.7918 49.5937 14.2622 50.8372C15.1542 51.5904 16.2144 51.9455 17.3659 52.0401C18.8316 52.1605 20.2375 52.4974 21.5523 53.1766C22.9652 53.9043 24.2587 54.798 25.4551 55.8369C27.0164 57.1904 28.2551 58.8382 29.5766 60.412C30.1242 61.0583 30.7027 61.6822 31.3352 62.2412C32.6858 63.4356 34.3298 63.9142 36.0908 64.1582C37.6893 64.3816 39.0512 63.886 40.3221 63.0135C42.3729 61.6121 43.9355 59.8002 44.8131 57.4508C45.3517 56.0142 45.4277 54.5117 45.2454 53.0086C45.063 51.5056 44.8353 50.0143 44.5523 48.5278C44.0321 45.7583 44.0224 42.978 44.2334 40.1785C44.343 38.6705 44.4644 37.1562 44.1836 35.6564C43.7512 33.3505 42.7172 31.3977 40.7496 30.0336C39.2662 29.0032 37.5825 28.6517 35.8017 28.7124C34.116 28.7747 32.4922 29.1411 30.9312 29.7901C29.8628 30.2373 28.7722 30.6538 27.7251 31.1535C25.6954 32.1251 23.561 32.6876 21.3448 32.9836C20.3331 33.1158 19.3233 33.2864 18.326 33.4807C16.9695 33.7429 15.7455 34.2932 14.6436 35.1465C13.363 36.1455 12.147 37.1984 11.1691 38.5264Z" fill="#FDCB00"/>
<path d="M47.1759 24.781C45.798 26.7778 45.0769 28.6837 45.2894 30.8536C45.4645 32.6851 46.302 34.1406 47.8617 35.1369C49.0907 35.925 50.4663 36.1808 51.9081 36.0467C54.3983 35.8218 56.4637 34.6979 58.1916 32.9234C59.6234 31.4473 60.5699 29.711 60.863 27.6603C61.1164 25.8702 60.8085 24.2026 59.628 22.7821C58.3296 21.2174 56.5947 20.6289 54.6149 20.7094C52.156 20.8086 50.0868 21.8556 48.3258 23.5322C47.8439 23.9862 47.4244 24.5075 47.1759 24.781Z" fill="#FDCB00"/>
<path d="M44.1233 22.6955C45.588 20.5165 46.3401 18.0026 45.894 15.2123C45.6281 13.5378 44.9142 12.0749 43.5636 11.014C41.9328 9.73658 40.0927 9.5099 38.1458 10.1406C36.1366 10.7858 34.6336 12.1142 33.4937 13.8522C32.3201 15.6475 31.6964 17.6235 31.7393 19.7825C31.7669 21.5005 32.2211 23.088 33.3091 24.4419C34.8224 26.3244 37.2481 26.98 39.6533 26.1748C41.4864 25.5586 42.8826 24.3684 44.1233 22.6955Z" fill="#FDCB00"/>
<path d="M18.044 16.9862C16.3235 19.6338 15.7151 22.4513 16.7785 25.4931C17.3691 27.1787 18.4722 28.4396 20.2079 29.0065C21.9979 29.5902 23.6493 29.1546 25.1474 28.0897C27.0583 26.7286 28.1446 24.8185 28.6454 22.5613C29.0384 20.7827 28.9501 19.0359 28.2346 17.3493C26.7981 13.9427 23.1972 12.8863 20.1265 14.9552C19.3062 15.4994 18.6241 16.1801 18.044 16.9862Z" fill="#FDCB00"/>
<path d="M49.216 42.0883C48.4596 43.2421 47.9194 44.455 47.7833 45.8254C47.4971 48.719 49.2274 51.0394 52.0881 51.5631C54.3678 51.9801 56.4416 51.3888 58.3304 50.1304C60.2975 48.8246 61.6846 47.0717 62.1838 44.7243C62.5549 42.9967 62.2613 41.3913 61.07 40.0372C60.0308 38.8518 58.6692 38.3095 57.1238 38.2281C54.6717 38.1022 52.5559 38.9674 50.7151 40.5495C50.1829 41.0118 49.7136 41.5714 49.216 42.0883Z" fill="#FDCB00"/>
</g>
</svg>
