<svg width="688" height="254" viewBox="0 0 688 254" fill="none" xmlns="http://www.w3.org/2000/svg">
<path opacity="0.502" d="M301.573 213.956C349.756 202.578 379.594 154.295 368.216 106.111C356.839 57.9278 308.555 28.0906 260.371 39.4681C212.188 50.8456 182.351 99.1292 193.728 147.313C205.106 195.496 253.389 225.333 301.573 213.956Z" fill="#FDCB00"/>
<g opacity="0.2">
<path fill-rule="evenodd" clip-rule="evenodd" d="M387.464 38L662.165 38C711.557 38 751.629 78.0725 751.629 127.464C751.701 176.928 711.629 217 662.165 217L387.464 217C338.073 217 298 176.927 298 127.536C298 78.0724 338.073 38 387.464 38Z" fill="#4EB387"/>
<path fill-rule="evenodd" clip-rule="evenodd" d="M387.464 38L662.165 38C711.557 38 751.629 78.0725 751.629 127.464C751.701 176.928 711.629 217 662.165 217L387.464 217C338.073 217 298 176.927 298 127.536C298 78.0724 338.073 38 387.464 38Z" fill="#FDCB00"/>
</g>
<path opacity="0.502" d="M232.692 213.078C280.346 199.651 308.092 150.135 294.664 102.481C281.237 54.8276 231.721 27.0815 184.068 40.5087C136.414 53.9359 108.668 103.452 122.095 151.105C135.522 198.759 185.038 226.505 232.692 213.078Z" fill="#EE7D1F"/>
<path opacity="0.7" d="M190.167 190.167C225.176 155.158 225.176 98.3977 190.167 63.3889C155.158 28.3802 98.3977 28.3801 63.389 63.3889C28.3802 98.3976 28.3802 155.158 63.3889 190.167C98.3977 225.176 155.158 225.175 190.167 190.167Z" fill="#A71235"/>
</svg>
