<svg width="110" height="26" viewBox="0 0 110 26" fill="none" xmlns="http://www.w3.org/2000/svg">
<g clip-path="url(#clip0_0:127)">
<path d="M106.947 1.88899L104.403 12.6569H107.398L109.822 1.88899H106.947ZM97.8084 1.93502H87.0246L86.4988 4.13948H90.3893L88.3464 12.6569H91.3131L93.3897 4.13706H97.2874L97.8084 1.93502ZM100.553 4.87349C100.691 4.22669 101.207 1.89626 101.207 1.89626L98.4765 1.88657L96.0163 12.6545H99.7934C105.551 12.5479 107.801 4.52223 100.553 4.87349ZM100.215 10.1497C100.215 10.1497 99.8344 10.1497 99.3086 10.1497L99.9478 7.2015C100.329 7.2015 100.133 7.2015 100.862 7.2015C103.836 7.28144 102.056 10.2393 100.215 10.1497ZM28.6294 7.2984L29.3264 4.20489C29.7364 4.20489 31.9458 4.20489 31.9458 4.20489C33.926 4.30421 32.9009 7.2984 31.3573 7.2984C31.3597 7.2984 29.2468 7.2984 28.6294 7.2984ZM26.08 13.8003C26.08 13.8003 23.9743 13.8003 23.3569 13.8003C23.533 13.0348 26.3332 0.108471 26.3332 0.108471H22.4452L4.91284 19.3987L6.20564 13.8052H3.4898L0.817383 24.2873H3.84194L8.77434 18.8488L7.5925 24.2873H10.3349C10.3349 24.2873 12.836 14.7136 12.8698 14.5658C12.9639 14.4786 15.2383 12.0586 15.3927 11.8817H20.5735L20.3034 13.8052C19.8909 13.8052 17.0931 13.8052 17.0931 13.8052C15.5036 13.8318 13.5596 14.905 12.7468 16.4869C12.5852 16.9278 12.4477 17.4583 12.426 18.0203C12.4019 18.6986 12.5249 19.435 12.9108 20.0261C13.2437 20.5857 14.5365 21.3391 15.974 21.3391C15.974 21.3391 17.7636 21.3391 18.5571 21.3391C18.4172 21.9568 17.5996 25.1182 17.5996 25.1182H20.7086C20.7086 25.1182 21.5648 21.7582 21.6999 21.3173C22.1099 21.3173 24.6063 21.3173 24.6063 21.3173C29.2179 21.4796 31.8541 14.5053 26.08 13.8003ZM19.0661 19.1443C18.6247 19.1443 16.2224 19.1443 16.2224 19.1443C14.7994 18.9433 15.0068 15.8546 17.4187 16.0266C17.4187 16.0266 19.095 16.0266 19.6811 16.0266L19.0661 19.1443ZM21.2271 9.56099H17.4887L22.2353 4.32843L21.2271 9.56099ZM22.2112 19.1346L22.9083 16.0411C23.3183 16.0411 25.5324 16.0411 25.5324 16.0411C27.5102 16.1404 26.4852 19.1346 24.9415 19.1346C24.9415 19.1346 22.8311 19.1346 22.2112 19.1346ZM33.9308 13.7325L24.5846 24.2873H27.5247C27.5247 24.2873 28.8513 22.8677 29.0346 22.6933H32.1001L31.7022 24.2873H34.6303L37.1652 13.7204L33.9308 13.7325ZM32.6549 20.467L31.1812 20.4307L33.1855 18.3207L32.6549 20.467ZM27.3004 12.6884L28.2025 9.51981C28.6438 9.51981 31.5213 9.51981 31.5213 9.51981C34.8883 9.2921 37.1001 5.48396 35.1126 2.84103C34.4494 2.29597 33.692 1.87446 32.6115 1.88899H27.1919L24.6569 12.6884H27.3004ZM73.0041 8.1826L73.4527 6.0169L67.8739 6.01448L68.3756 3.9045H74.9167L75.3412 1.88899H65.8792L63.3154 12.6884H72.7774L73.3635 10.1642L66.8898 10.1497L67.3577 8.1826H73.0041ZM66.2507 13.6768L63.7399 24.2873H66.7379L69.2053 13.6768H66.2507ZM82.4926 5.90547H77.9703L78.9181 1.88899H76.0841L73.6071 12.6569H76.4483L77.4179 8.23347H81.9306L81.0937 12.6569H83.7324L86.1877 1.88899H83.5442L82.4926 5.90547ZM37.281 12.6884L39.5265 4.13706H42.7922L44.5361 8.60653L41.1376 12.6642L44.2129 12.6593L51.6609 3.76642L49.7362 12.6908H52.2301L53.7713 6.8575L54.5552 12.6908H57.3506L60.9348 6.63221L59.531 12.6908H62.2155L64.8325 1.89142H60.9613L56.8948 8.69374L56.0241 1.89142H50.1124L46.6368 6.00237L44.8134 1.89142H37.1459L34.6737 12.6908H37.281V12.6884ZM59.8808 16.9811C60.0231 16.3342 60.4596 13.6768 60.4596 13.6768H57.7245L55.3102 24.2873H59.2175C64.9121 24.171 67.119 16.5571 59.8808 16.9811ZM59.6347 22.187C59.6347 22.187 59.2585 22.187 58.7279 22.187L59.3646 19.2364C59.7457 19.2364 59.5527 19.2364 60.2836 19.2364C62.6834 19.2025 61.7283 22.2039 59.6347 22.187ZM44.8786 13.7204L39.7508 17.5043L40.6432 13.7325H38.0648L35.5106 24.2873H38.3519L39.1164 20.811L40.5154 19.9341L42.9104 24.2848H46.1328L42.785 18.156L46.0507 15.9248H49.975L48.1009 24.2873H50.795L52.7632 15.9248H56.6657L57.189 13.7204H44.8786Z" fill="#DC1F28"/>
<path d="M75.3943 2.46562H75.3726L73.8483 5.30235H75.6524L75.3943 2.46562ZM74.5333 0.970951H76.8849L78.1222 8.22144H76.0166L75.814 6.67832H73.1126L72.2106 8.22144H70.2642L74.5333 0.970951Z" fill="#464648"/>
<path d="M82.5193 0.970951L80.9854 8.22144H79.0679L80.6043 0.970951H82.5193Z" fill="#464648"/>
<path d="M84.2484 0.973375H89.0674L88.7804 2.33965H85.8788L85.5388 3.94576H88.3245L88.0351 5.31204H85.2517L84.6343 8.22144H82.7168L84.2484 0.973375Z" fill="#464648"/>
<path d="M88.2403 0.970877H89.9817L89.6319 2.64966H87.8881L88.2403 0.970877Z" fill="#464648"/>
<path d="M94.3064 4.00148H94.9263C95.5872 4.00148 95.8742 3.87551 96.0092 3.80283C96.359 3.60661 96.4145 3.27473 96.4145 3.0882C96.4145 2.76601 96.248 2.6037 96.1974 2.5601C95.9779 2.37357 95.6065 2.36388 95.5245 2.36388H94.6513L94.3064 4.00148ZM93.0305 0.973375H95.6402C96.9354 0.973375 97.4757 1.24227 97.7097 1.41911C98.2548 1.82367 98.3319 2.40264 98.3319 2.83869C98.3319 3.38617 98.1776 3.82221 97.7 4.18558C97.1839 4.56591 96.5061 4.66766 96.236 4.68946V4.70884C96.5158 4.75971 96.7208 4.93897 96.8438 5.18607C96.8872 5.27812 96.9813 5.48646 97.0922 5.99518L97.6059 8.22144H95.6885L95.317 6.37793C95.2495 6.02667 95.2037 5.68268 95.0179 5.52037C94.8443 5.36291 94.5452 5.36291 94.2027 5.36291H94.017L93.4116 8.22144H91.4917L93.0305 0.973375Z" fill="#464648"/>
<path d="M105.522 5.25119C105.346 6.0603 105.119 6.87668 104.366 7.49925C103.614 8.11941 102.663 8.21631 101.995 8.21631C101.397 8.21631 100.488 8.13394 99.8463 7.56466C99.5713 7.31272 99.2168 6.85003 99.2168 5.93675C99.2168 5.44015 99.3422 4.85148 99.4073 4.57048L100.211 0.842278H102.126L101.252 4.95323C101.224 5.0792 101.139 5.43046 101.139 5.78414C101.139 6.12571 101.252 6.38249 101.407 6.52784C101.573 6.6853 101.851 6.78705 102.171 6.78705C102.666 6.78705 102.955 6.54964 103.107 6.38249C103.375 6.09422 103.491 5.75265 103.648 5.03801L104.545 0.8447H106.462L105.522 5.25119Z" fill="#464648"/>
</g>
<defs>
<clipPath id="clip0_0:127">
<rect width="109" height="25" fill="white" transform="matrix(1 0 0 -1 0.817383 25.1182)"/>
</clipPath>
</defs>
</svg>
