<svg width="82" height="45" viewBox="0 0 82 45" fill="none" xmlns="http://www.w3.org/2000/svg">
<g clip-path="url(#clip0_0:199)">
<path d="M81.8174 0.476562H0.817383V44.4766H81.8174V0.476562Z" fill="#D24A43"/>
<path d="M81.3627 0.970947H1.27206V43.9492H81.3627V0.970947Z" stroke="white"/>
<path d="M73.8602 29.6122C70.8073 29.6122 68.339 32.117 68.339 35.2152C68.339 38.3133 70.8073 40.8182 73.8602 40.8182C76.9132 40.8182 79.3815 38.3133 79.3815 35.2152C79.3815 32.15 76.9132 29.6122 73.8602 29.6122ZM78.2772 4.06909H69.4757V26.3492H78.2772V4.06909Z" fill="white"/>
<path d="M61.2589 4.06909L48.4625 19.2631H48.3001L50.671 4.06909H40.3106L34.6269 40.8182H44.9224L47.3908 25.0968H47.5207L56.3222 40.8182H68.5989L57.2316 21.5373L73.0808 4.06909H61.2589Z" fill="white"/>
<path d="M20.8563 32.2159C15.2376 32.2159 12.9641 28.2938 12.9641 23.6466C12.9641 17.9118 16.6341 12.2429 23.2921 12.2099C28.9108 12.2099 31.1842 16.132 31.1842 20.7792C31.1842 26.514 27.5467 32.2159 20.8563 32.2159ZM24.234 3.7395C11.9573 3.7395 3.35065 12.935 3.35065 24.8661C3.35065 34.7537 10.236 41.1148 19.9469 41.1148C32.2235 41.1148 40.8302 31.9522 40.8302 20.0212C40.8302 10.1335 33.9449 3.77246 24.234 3.7395Z" fill="white"/>
</g>
<defs>
<clipPath id="clip0_0:199">
<rect width="81" height="44" fill="white" transform="translate(0.817383 0.476562)"/>
</clipPath>
</defs>
</svg>
