<svg width="10" height="16" viewBox="0 0 10 16" fill="none" xmlns="http://www.w3.org/2000/svg">
<g clip-path="url(#clip0_0:78)">
<path d="M4.99868 8.38742C2.98599 8.38742 1.34886 6.64212 1.34886 4.49645C1.34886 2.35077 2.98599 0.605469 4.99868 0.605469C7.01138 0.605469 8.64851 2.35077 8.64851 4.49645C8.64851 6.64212 7.01138 8.38742 4.99868 8.38742ZM4.99868 2.97389C4.21053 2.97389 3.57049 3.65622 3.57049 4.49645C3.57049 5.33667 4.21053 6.019 4.99868 6.019C5.78684 6.019 6.42688 5.33667 6.42688 4.49645C6.42688 3.65622 5.78684 2.97389 4.99868 2.97389Z" fill="white"/>
<path d="M2.45967 15.6054C2.16345 15.6054 1.8831 15.4813 1.67416 15.2586C1.24041 14.7962 1.24041 14.0462 1.67416 13.5838L3.71859 11.4043C2.42528 11.1364 1.26157 10.4795 0.325311 9.48133C-0.108437 9.01893 -0.108437 8.26611 0.325311 7.80652C0.53425 7.58378 0.814599 7.45972 1.11082 7.45972C1.40704 7.45972 1.68738 7.58378 1.89632 7.80652C2.72415 8.68904 3.82703 9.174 5.00132 9.174C6.17561 9.174 7.2785 8.68904 8.10632 7.80652C8.31526 7.58378 8.59561 7.45972 8.89183 7.45972C9.18805 7.45972 9.46839 7.58378 9.67733 7.80652C10.1111 8.26893 10.1084 9.02175 9.67733 9.48133C8.74107 10.4795 7.57472 11.1392 6.28405 11.4043L8.32848 13.5838C8.76223 14.0462 8.76223 14.7962 8.32848 15.2586C8.11954 15.4813 7.8392 15.6054 7.54298 15.6054C7.24676 15.6054 6.96641 15.4813 6.75747 15.2586L4.99868 13.3892L3.24517 15.2586C3.03623 15.4813 2.75588 15.6054 2.45967 15.6054Z" fill="white"/>
</g>
<defs>
<clipPath id="clip0_0:78">
<rect width="10" height="15" fill="white" transform="translate(0 0.605469)"/>
</clipPath>
</defs>
</svg>
