<svg width="8" height="16" viewBox="0 0 8 16" fill="none" xmlns="http://www.w3.org/2000/svg">
<g clip-path="url(#clip0_0:83)">
<path d="M7.69231 0.605469H5.76923C3.61538 0.605469 2.21538 2.05708 2.21538 4.30474V6.00609H0.307692C0.138462 6.00609 0 6.14657 0 6.31827V8.78445C0 8.95615 0.138462 9.09663 0.307692 9.09663H2.23077V15.3245C2.23077 15.4962 2.36923 15.6367 2.53846 15.6367H5.06154C5.23077 15.6367 5.36923 15.4962 5.36923 15.3245V9.08102H7.63077C7.8 9.08102 7.93846 8.94054 7.93846 8.76884V6.30266C7.93846 6.22462 7.90769 6.14657 7.84615 6.08414C7.78462 6.0217 7.70769 5.99049 7.63077 5.99049H5.35385V4.55448C5.35385 3.8677 5.52308 3.5087 6.4 3.5087H7.69231C7.86154 3.5087 8 3.36822 8 3.19652V0.917644C8 0.745947 7.86154 0.605469 7.69231 0.605469Z" fill="white"/>
</g>
<defs>
<clipPath id="clip0_0:83">
<rect width="8" height="15" fill="white" transform="translate(0 0.605469)"/>
</clipPath>
</defs>
</svg>
