<svg width="100" height="100" viewBox="0 0 100 100" fill="none" xmlns="http://www.w3.org/2000/svg">
<g clip-path="url(#clip0_0:559)">
<path d="M99.9998 34.6203C100.031 26.5903 96.4543 20.7037 89.1621 17.2245C84.6876 15.0811 79.919 13.8851 74.9646 13.4968C71.961 13.2639 69.2051 14.1181 66.6505 15.6558C63.3992 17.6128 59.9466 19.0262 56.1689 19.5854C52.1125 20.1911 48.056 20.2688 43.9842 19.896C38.6737 19.4145 33.5954 17.8303 28.4552 16.5256C26.3341 15.9975 24.182 15.5626 22.0145 15.3451C17.3852 14.8792 13.2204 16.3547 9.16403 18.4981C5.4792 20.4396 3.37358 23.5305 2.0266 27.2737C-0.15643 33.3001 -0.698317 39.4507 1.00476 45.6946C2.04208 49.5154 4.1477 52.7772 6.79521 55.6506C9.44271 58.524 12.1676 61.3042 15.0009 63.9912C20.265 69.0081 24.4762 74.817 28.2539 80.9987C30.2976 84.3226 32.3258 87.6775 35.1746 90.3956C39.5562 94.5736 44.6654 97.1054 50.8429 96.9966C55.5031 96.919 59.5595 95.1173 63.1979 92.306C66.635 89.6345 69.4838 86.4194 71.7752 82.7072C73.339 80.16 74.9956 77.6438 76.4354 75.0189C79.2223 69.9244 82.8452 65.5289 87.041 61.5682C88.9608 59.7665 90.8187 57.8872 92.6146 55.9767C95.0609 53.3829 96.7949 50.3852 97.8168 46.9371C98.9934 42.9144 99.9534 38.8761 99.9998 34.6203Z" fill="#F3FAFE"/>
<g clip-path="url(#clip1_0:559)">
<path d="M50.1428 62.5825C48.5339 63.9439 47.1312 65.4497 46.038 67.203C45.4192 68.1931 44.9035 69.245 44.3672 70.2764C42.7583 73.4117 40.2418 75.0619 36.6939 75C32.4035 74.9175 28.8144 71.0809 29 66.7904C29.165 62.9744 31.6403 59.9835 35.3532 59.1584C36.9208 58.8078 38.4885 58.9521 40.0149 59.5297C42.2014 60.3754 44.2228 59.5091 45.1923 57.3845C45.4811 56.7244 45.7492 56.0437 46.0792 55.4043C46.3886 54.8061 46.3886 54.2904 46.1411 53.6716C44.4085 49.1955 42.6964 44.6988 40.9844 40.2228C40.2212 38.2426 39.4373 36.2624 38.7154 34.2615C37.7047 31.4769 37.9109 28.7335 39.2517 26.0932C39.3754 25.8457 39.4992 25.5982 39.6642 25.3919C40.0768 24.8556 40.6337 24.8762 41.005 25.4538C41.1494 25.6807 41.2319 25.9488 41.3556 26.1964C44.099 32.4051 46.8424 38.6139 49.6065 44.8226C49.7509 45.1526 49.9159 45.5033 50.1634 45.9983C50.3903 45.5446 50.5759 45.2351 50.7203 44.9051C53.4844 38.6551 56.2484 32.4257 59.0124 26.1757C59.2187 25.7013 59.3012 25.0413 60.0025 25C60.7038 24.9794 60.8689 25.6188 61.0957 26.0726C62.3334 28.3828 62.519 30.8375 61.9208 33.3746C61.9208 33.4158 61.9002 33.4365 61.9002 33.4777C61.6527 34.3441 61.2814 34.6741 60.7657 34.5091C60.2913 34.3647 60.2088 34.014 60.4357 33.1064C60.8689 31.3119 60.8689 29.5173 60.1263 27.6196C59.9406 27.9497 59.7962 28.1559 59.6931 28.3828C56.9085 34.6947 54.1238 40.986 51.3185 47.2979C51.1122 47.7723 51.071 48.1642 51.3185 48.6592C51.8961 49.8556 52.4118 51.0932 53.0306 52.4546C53.1956 52.0833 53.34 51.8358 53.4431 51.5677C54.2269 49.5462 54.9901 47.5247 55.7533 45.5239C55.8358 45.297 55.9184 45.0701 56.0215 44.8639C56.2278 44.4719 56.5372 44.3069 56.9703 44.4513C57.4035 44.5957 57.5273 44.9464 57.4241 45.3589C57.3622 45.6271 57.2385 45.8746 57.156 46.1427C56.1865 48.6799 55.217 51.1964 54.2269 53.7129C54 54.3111 53.9794 54.7855 54.2888 55.363C54.6807 56.085 54.9489 56.8688 55.2995 57.6114C55.9596 59.0553 57.6717 60.066 59.2187 59.8804C59.6519 59.8391 60.0644 59.6535 60.4976 59.4884C65.118 57.797 70.0066 60.396 71.1824 65.1609C72.3788 70.0289 68.604 74.9381 63.5916 74.9794C60.0231 75.0206 57.486 73.3705 55.9802 70.1733C54.722 67.4917 53.0718 65.1196 50.8647 63.1394C50.6172 62.9538 50.3903 62.7888 50.1428 62.5825ZM40.2418 27.599C40.0974 27.929 40.0149 28.1147 39.953 28.2797C39.4167 30.2186 39.4786 32.137 40.2212 34.0347C43.5215 42.6361 46.8218 51.2583 50.0809 59.8804C50.3078 60.4785 50.6378 60.953 51.0916 61.3861C52.2055 62.4587 53.2987 63.552 54.3094 64.7071C55.6089 66.2129 56.5165 68.0074 57.3829 69.802C58.8268 72.7929 62.1477 74.1749 65.2624 73.1642C68.3358 72.1535 70.1923 69.1007 69.656 65.8828C69.0165 61.9637 64.8499 59.5503 61.0545 60.8705C60.4976 61.0561 59.9613 61.3036 59.3837 61.3655C57.0322 61.6543 54.722 60.3135 53.7525 58.0858C49.4208 48.3086 45.0891 38.5107 40.7781 28.7335C40.6749 28.4035 40.4893 28.0941 40.2418 27.599ZM49.0495 61.3655C48.4514 59.8185 47.8532 58.2921 47.1931 56.6007C46.8837 57.2813 46.6774 57.7764 46.4505 58.2715C45.2748 60.8498 42.2839 62.0668 39.623 61.0149C38.6741 60.6436 37.7253 60.4785 36.7146 60.5198C33.3111 60.6229 30.6089 63.4901 30.5471 66.9761C30.4852 70.1939 33.0223 73.3086 36.6733 73.4736C39.5611 73.5974 41.6857 72.2979 42.9439 69.6782C43.8103 67.8837 44.7591 66.1304 46.0586 64.604C46.9868 63.5107 47.9976 62.5 49.0495 61.3655Z" fill="#84CDEC"/>
<path d="M59.9819 38.6139C59.6519 39.4183 59.3838 40.1403 59.0743 40.821C58.9093 41.1716 58.5587 41.2541 58.1874 41.151C57.7955 41.0272 57.6511 40.6766 57.7542 40.3259C57.9811 39.604 58.2493 38.9027 58.538 38.222C58.7237 37.8094 59.1362 37.6857 59.4869 37.8919C59.7344 37.9951 59.8375 38.3664 59.9819 38.6139Z" fill="#84CDEC"/>
<path d="M63.1584 71.2871C60.7038 71.2665 58.7649 69.2657 58.7855 66.7904C58.8061 64.4183 60.8276 62.4175 63.2203 62.4175C65.6131 62.4175 67.6964 64.5008 67.6758 66.8936C67.6551 69.3275 65.6337 71.2871 63.1584 71.2871ZM66.1081 66.8936C66.1287 65.264 64.9117 64.0264 63.3028 63.9851C61.6527 63.9439 60.3325 65.2021 60.3119 66.8317C60.2913 68.3993 61.5908 69.7195 63.1378 69.7607C64.7674 69.8226 66.0875 68.5437 66.1081 66.8936Z" fill="#84CDEC"/>
<path d="M49.9365 53.9191C50.3903 53.8984 50.7616 54.2078 50.8028 54.6204C50.8441 55.0536 50.5347 55.363 50.0603 55.4042C49.5652 55.4455 49.132 55.1154 49.132 54.6823C49.1114 54.2697 49.5033 53.9191 49.9365 53.9191Z" fill="#84CDEC"/>
<path d="M41.5207 66.8317C41.5207 69.3069 39.5612 71.2665 37.0859 71.2665C34.6313 71.2665 32.6098 69.2244 32.6305 66.811C32.6717 64.4389 34.6519 62.4381 37.0447 62.3969C39.458 62.3556 41.5001 64.3977 41.5207 66.8317ZM37.1478 63.9851C35.5183 63.9439 34.1775 65.2434 34.1775 66.8729C34.1775 68.4406 35.477 69.7607 37.0447 69.7813C38.6536 69.802 40.015 68.4818 40.015 66.8729C40.015 65.2846 38.7567 64.0058 37.1478 63.9851Z" fill="#84CDEC"/>
</g>
</g>
<defs>
<clipPath id="clip0_0:559">
<rect width="100" height="100" fill="white"/>
</clipPath>
<clipPath id="clip1_0:559">
<rect width="42.3474" height="50" fill="white" transform="translate(29 25)"/>
</clipPath>
</defs>
</svg>
