<svg width="100" height="100" viewBox="0 0 100 100" fill="none" xmlns="http://www.w3.org/2000/svg">
<g clip-path="url(#clip0_0:549)">
<path d="M84.0025 8.37243C79.1225 1.99532 72.6953 -0.481328 64.7962 1.21778C59.9442 2.25349 55.4379 4.21907 51.2779 6.93763C48.7573 8.58768 47.0969 10.9473 46.0134 13.7251C44.6342 17.2605 42.7637 20.4884 40.114 23.2385C37.2721 26.1957 34.1077 28.7347 30.6558 30.9266C26.1569 33.7889 21.1683 35.6361 16.3014 37.7425C14.2993 38.6199 12.3297 39.59 10.4806 40.7417C6.53054 43.2002 4.13407 46.9123 2.23132 51.087C0.499468 54.8749 0.720045 58.6083 1.93975 62.3949C3.89199 68.4999 7.21958 73.701 12.3817 77.6047C15.5367 79.9965 19.1961 81.2931 23.0474 81.9513C26.8987 82.6094 30.7544 83.1465 34.639 83.5436C41.8713 84.3008 48.7537 86.3282 55.5206 88.9156C59.1689 90.2992 62.8239 91.7169 66.7397 92.1291C72.7609 92.7612 78.3527 91.6452 83.1777 87.7861C86.8203 84.8782 88.9317 80.9741 90.0955 76.5259C91.1854 72.3113 91.4774 68.0256 91.0244 63.6867C90.7068 60.7147 90.4817 57.7106 90.0186 54.7528C89.1137 49.0168 89.2976 43.3236 90.2008 37.6249C90.6204 35.0257 90.9437 32.4028 91.1989 29.7932C91.5516 26.2453 91.0937 22.8126 89.7968 19.4583C88.2715 15.5544 86.565 11.7705 84.0025 8.37243Z" fill="#FFFAE6"/>
<path d="M84.0025 8.37243C79.1225 1.99532 72.6953 -0.481328 64.7962 1.21778C59.9442 2.25349 55.4379 4.21907 51.2779 6.93763C48.7573 8.58768 47.0969 10.9473 46.0134 13.7251C44.6342 17.2605 42.7637 20.4884 40.114 23.2385C37.2721 26.1957 34.1077 28.7347 30.6558 30.9266C26.1569 33.7889 21.1683 35.6361 16.3014 37.7425C14.2993 38.6199 12.3297 39.59 10.4806 40.7417C6.53054 43.2002 4.13407 46.9123 2.23132 51.087C0.499468 54.8749 0.720045 58.6083 1.93975 62.3949C3.89199 68.4999 7.21958 73.701 12.3817 77.6047C15.5367 79.9965 19.1961 81.2931 23.0474 81.9513C26.8987 82.6094 30.7544 83.1465 34.639 83.5436C41.8713 84.3008 48.7537 86.3282 55.5206 88.9156C59.1689 90.2992 62.8239 91.7169 66.7397 92.1291C72.7609 92.7612 78.3527 91.6452 83.1777 87.7861C86.8203 84.8782 88.9317 80.9741 90.0955 76.5259C91.1854 72.3113 91.4774 68.0256 91.0244 63.6867C90.7068 60.7147 90.4817 57.7106 90.0186 54.7528C89.1137 49.0168 89.2976 43.3236 90.2008 37.6249C90.6204 35.0257 90.9437 32.4028 91.1989 29.7932C91.5516 26.2453 91.0937 22.8126 89.7968 19.4583C88.2715 15.5544 86.565 11.7705 84.0025 8.37243Z" fill="#FFFCF2"/>
<g clip-path="url(#clip1_0:549)">
<path d="M33.3723 65.9837C29.0788 65.8471 26.5612 64.2663 25.4293 61.1047C24.3949 58.1773 25.2341 55.0352 27.6346 52.986C30.1326 50.8392 33.0991 50.7026 36.6119 52.5567C42.0179 47.1312 47.4238 41.7448 52.8883 36.2803C51.2489 32.9431 51.4051 29.6644 54.3715 26.9517C56.6353 24.883 59.3676 24.4926 62.1779 25.7222C65.4371 27.1663 66.7642 29.8595 66.5885 33.431C70.9601 33.3139 73.946 35.2069 74.8243 39.598C75.4293 42.5645 74.2973 45.1015 71.8188 46.819C68.8524 48.8681 65.8274 48.5754 63.0366 46.6433C57.6502 52.0297 52.2638 57.4161 46.8383 62.8416C48.6143 65.8275 48.6728 68.9306 46.2528 71.858C44.3793 74.1218 41.2177 75.0001 38.466 74.0047C34.7969 72.6581 33.2161 69.8673 33.3723 65.9837ZM40.6908 72.3654C43.7743 72.3849 46.1162 70.0235 46.1162 66.9399C46.1162 65.5738 45.6283 64.4224 44.7891 63.3685C44.2037 62.6464 44.2427 62.3537 44.8672 61.6706C44.9843 61.5535 45.1014 61.4364 45.2185 61.3193C50.683 55.8549 56.167 50.3709 61.6314 44.9064C62.7243 43.8135 62.8805 43.8135 64.0124 44.7893C64.1685 44.9259 64.3051 45.043 64.4808 45.1601C66.5104 46.6238 69.2817 46.5262 71.1553 44.8869C73.1264 43.1499 73.6338 40.4372 72.3848 38.1734C71.1553 35.9485 68.5791 34.8947 66.1201 35.6168C65.5737 35.7729 64.9882 36.1047 64.5003 35.5387C64.0514 35.0508 64.2856 34.5044 64.4808 33.9774C64.5003 33.9384 64.5003 33.9189 64.5003 33.8798C65.1638 31.4599 64.11 28.9033 61.9437 27.7128C59.8165 26.5223 57.0842 26.9321 55.4058 28.6886C53.7079 30.4645 53.4347 33.2553 54.7618 35.3435C55.601 36.6706 55.601 36.6706 54.4691 37.783C49.1217 43.1304 43.7548 48.4973 38.4074 53.8447C37.0608 55.1913 37.0608 55.1913 35.48 54.1179C33.4503 52.7323 30.7181 52.9079 28.9031 54.5473C26.971 56.2842 26.5026 58.9774 27.7126 61.2022C28.9226 63.388 31.4792 64.4809 33.8602 63.8174C34.4261 63.6613 35.0311 63.2709 35.5776 63.8369C36.1045 64.4029 35.7337 65.0079 35.5776 65.5738C34.6213 69.0086 37.1584 72.3459 40.6908 72.3654Z" fill="#FDCB00"/>
<path d="M41.2178 55.5424C40.886 55.3278 40.5152 55.2302 40.3981 54.996C40.2615 54.7228 40.3005 54.3324 40.3591 54.0007C40.3981 53.8055 40.6323 53.6494 40.7884 53.4737C42.096 52.1662 43.4036 50.8586 44.7111 49.551C44.8477 49.4144 44.9843 49.2778 45.1405 49.1607C45.5698 48.8485 45.9992 48.8875 46.37 49.2388C46.7408 49.6096 46.7993 50.0584 46.4871 50.4683C46.1163 50.9171 45.7064 51.327 45.2966 51.7368C44.2623 52.7712 43.2474 53.8055 42.1936 54.8399C41.9203 55.0936 41.5886 55.2692 41.2178 55.5424Z" fill="#FDCB00"/>
<path d="M47.7947 46.897C48.3411 46.897 48.79 47.3654 48.7705 47.8728C48.751 48.3607 48.224 48.8486 47.7361 48.8291C47.2482 48.8095 46.8384 48.3802 46.8384 47.8728C46.8189 47.3263 47.2482 46.897 47.7947 46.897Z" fill="#FDCB00"/>
</g>
</g>
<defs>
<clipPath id="clip0_0:549">
<rect width="100" height="100" fill="white"/>
</clipPath>
<clipPath id="clip1_0:549">
<rect width="50" height="49.3755" fill="white" transform="translate(25 25)"/>
</clipPath>
</defs>
</svg>
