<svg width="100" height="100" viewBox="0 0 100 100" fill="none" xmlns="http://www.w3.org/2000/svg">
<g clip-path="url(#clip0_0:538)">
<path d="M0.000192911 67.8387C-0.0307679 75.8687 3.54569 81.7553 10.8379 85.2345C15.3124 87.3779 20.081 88.5738 25.0354 88.9621C28.039 89.1951 30.7949 88.3409 33.3495 86.8032C36.6008 84.8462 40.0534 83.4328 43.8311 82.8736C47.8875 82.2679 51.9439 82.1902 56.0158 82.563C61.3263 83.0445 66.4046 84.6287 71.5448 85.9334C73.6659 86.4615 75.818 86.8964 77.9855 87.1138C82.6148 87.5798 86.7796 86.1043 90.836 83.9608C94.5208 82.0193 96.6264 78.9285 97.9734 75.1853C100.156 69.1589 100.698 63.0082 98.9952 56.7644C97.9579 52.9435 95.8523 49.6818 93.2048 46.8084C90.5573 43.935 87.8324 41.1548 84.9991 38.4677C79.735 33.4509 75.5238 27.642 71.7461 21.4603C69.7024 18.1364 67.6742 14.7815 64.8254 12.0634C60.4438 7.88533 55.3346 5.35362 49.1571 5.46235C44.4969 5.54001 40.4405 7.34171 36.8021 10.153C33.365 12.8245 30.5162 16.0396 28.2248 19.7517C26.661 22.299 25.0044 24.8152 23.5646 27.4401C20.7777 32.5345 17.1548 36.9301 12.959 40.8907C11.0392 42.6924 9.18132 44.5718 7.38535 46.4822C4.93911 49.0761 3.20507 52.0737 2.18322 55.5218C1.00656 59.5446 0.046641 63.5829 0.000192911 67.8387Z" fill="#FDEFEF"/>
<path d="M0.000192911 67.8387C-0.0307679 75.8687 3.54569 81.7553 10.8379 85.2345C15.3124 87.3779 20.081 88.5738 25.0354 88.9621C28.039 89.1951 30.7949 88.3409 33.3495 86.8032C36.6008 84.8462 40.0534 83.4328 43.8311 82.8736C47.8875 82.2679 51.9439 82.1902 56.0158 82.563C61.3263 83.0445 66.4046 84.6287 71.5448 85.9334C73.6659 86.4615 75.818 86.8964 77.9855 87.1138C82.6148 87.5798 86.7796 86.1043 90.836 83.9608C94.5208 82.0193 96.6264 78.9285 97.9734 75.1853C100.156 69.1589 100.698 63.0082 98.9952 56.7644C97.9579 52.9435 95.8523 49.6818 93.2048 46.8084C90.5573 43.935 87.8324 41.1548 84.9991 38.4677C79.735 33.4509 75.5238 27.642 71.7461 21.4603C69.7024 18.1364 67.6742 14.7815 64.8254 12.0634C60.4438 7.88533 55.3346 5.35362 49.1571 5.46235C44.4969 5.54001 40.4405 7.34171 36.8021 10.153C33.365 12.8245 30.5162 16.0396 28.2248 19.7517C26.661 22.299 25.0044 24.8152 23.5646 27.4401C20.7777 32.5345 17.1548 36.9301 12.959 40.8907C11.0392 42.6924 9.18132 44.5718 7.38535 46.4822C4.93911 49.0761 3.20507 52.0737 2.18322 55.5218C1.00656 59.5446 0.046641 63.5829 0.000192911 67.8387Z" fill="#FEF7F6"/>
<g clip-path="url(#clip1_0:538)">
<path d="M34.9649 66.837C33.3073 66.837 31.7863 66.8565 30.2652 66.837C28.8612 66.8175 27.5741 66.4275 26.5406 65.4134C25.546 64.4384 25 63.2683 25 61.8448C25 55.9555 25 50.0858 25 44.1966C25 41.5055 27.0866 39.3799 29.7777 39.2824C31.6888 39.2239 33.6193 39.2434 35.5304 39.2044C35.8424 39.2044 36.1739 39.1849 36.5445 39.1654C36.5835 38.8729 36.642 38.6193 36.642 38.3658C36.6615 37.2933 36.681 36.2207 36.642 35.1482C36.564 32.6521 38.475 30.117 41.7512 30C41.8097 30 41.8877 30 41.9462 30C51.3066 30.039 60.6669 30.0585 70.0273 30.117C72.4844 30.1365 74.3565 31.6771 74.922 34.0757C75 34.4462 75 34.8557 75.0195 35.2457C75.0195 40.9984 75.0195 46.7512 75.0195 52.5039C75.0195 55.3705 73.0109 57.4961 70.1638 57.6911C69.8713 57.7106 69.5983 57.7301 69.2473 57.7496C69.2278 58.1201 69.2083 58.4321 69.2083 58.7442C69.2083 60.9282 69.2083 63.0928 69.2083 65.2769C69.2083 65.5304 69.2278 65.8034 69.1888 66.0569C69.0718 66.72 68.4282 67.0125 67.8627 66.6225C67.5897 66.447 67.3947 66.1935 67.1607 65.9399C65.9516 64.6139 64.7621 63.3073 63.4555 61.8643C63.3775 62.3128 63.3385 62.6443 63.241 62.9563C62.6365 65.2574 60.5694 66.72 58.3853 66.72C54.1342 66.72 49.8635 66.798 45.6123 66.798C44.8713 66.798 44.3643 66.993 43.8573 67.578C41.6147 70.1131 39.3331 72.5897 37.0515 75.0858C36.876 75.2808 36.7005 75.4758 36.5055 75.6513C35.8619 76.1779 35.1209 75.8853 35.0039 75.0663C34.9649 74.8128 34.9844 74.5398 34.9844 74.2863C34.9844 72.1802 34.9844 70.0546 34.9844 67.9485C34.9649 67.6365 34.9649 67.3245 34.9649 66.837ZM36.759 72.4532C36.8175 72.4922 36.876 72.5117 36.9345 72.5507C37.227 72.2192 37.539 71.9072 37.8315 71.5757C39.4891 69.7426 41.1856 67.9485 42.7847 66.0764C43.4282 65.3159 44.1108 65.0039 45.1248 65.0234C49.22 65.0624 53.3151 65.0234 57.4103 65.0039C57.7418 65.0039 58.0538 65.0039 58.3853 64.9649C60.3744 64.7504 61.3885 63.6973 61.5835 61.6888C61.603 61.4353 61.603 61.1622 61.603 60.9087C61.603 55.6045 61.603 50.3198 61.603 45.0156C61.603 44.5281 61.564 44.0406 61.486 43.553C61.2715 42.3245 60.5304 41.5055 59.3604 41.1154C58.8534 40.9594 58.2683 40.9204 57.7223 40.9204C48.752 40.9204 39.7816 40.9399 30.8307 40.9594C30.4992 40.9594 30.1872 40.9789 29.8557 40.9984C27.9056 41.1544 26.7551 42.7145 26.7746 44.4696C26.8136 50.1638 26.8331 55.8385 26.7746 61.5328C26.7551 63.7754 28.3931 65.1014 30.3042 65.0624C31.9618 65.0234 33.6193 65.0429 35.2769 65.0624C36.525 65.0624 36.759 65.2964 36.759 66.525C36.759 68.4945 36.759 70.4836 36.759 72.4532ZM67.1802 63.3658C67.2387 63.3463 67.3167 63.3073 67.3752 63.2878C67.3752 61.4743 67.3752 59.6607 67.3752 57.8471C67.3752 57.4961 67.3752 57.1256 67.4142 56.7746C67.4922 56.2286 67.8237 55.897 68.3892 55.897C68.9353 55.897 69.5008 55.9165 70.0468 55.8775C71.2169 55.7995 72.1529 55.2925 72.7769 54.259C73.1669 53.6154 73.1864 52.9134 73.1864 52.1919C73.1864 47.8432 73.1864 43.4945 73.1864 39.1264C73.1864 37.7223 73.1669 36.3378 73.1669 34.9337C73.1669 34.1537 72.8744 33.4711 72.3479 32.9056C71.6459 32.1256 70.7293 31.8721 69.7153 31.8721C67.8042 31.8526 65.8736 31.8331 63.9626 31.8136C56.7863 31.7941 49.61 31.7746 42.4337 31.7746C42.1022 31.7746 41.7902 31.7551 41.4587 31.7941C39.7621 31.9501 38.6115 33.0031 38.436 34.6802C38.319 35.9672 38.358 37.2738 38.3385 38.5803C38.3385 38.7559 38.4165 38.9314 38.475 39.1849C38.9041 39.1849 39.2746 39.1849 39.6646 39.1849C45.7293 39.1654 51.8136 39.1459 57.8783 39.1459C59.6724 39.1459 61.1739 39.7504 62.2855 41.1934C63.046 42.188 63.28 43.3385 63.28 44.5671C63.2605 49.1108 63.2605 53.6544 63.28 58.2176C63.28 58.5881 63.28 59.0757 63.4945 59.3292C64.7426 60.7137 65.9711 62.0398 67.1802 63.3658Z" fill="#A71235"/>
<path d="M44.1498 59.2706C40.8152 59.2706 37.4611 59.2706 34.1264 59.2706C33.8339 59.2706 33.5414 59.2901 33.2489 59.2316C32.7809 59.1341 32.4884 58.8221 32.4884 58.3541C32.4884 57.9251 32.7809 57.6326 33.1904 57.5351C33.4049 57.4766 33.6389 57.4766 33.8729 57.4766C40.7177 57.4766 47.5625 57.4766 54.4268 57.4766C54.6608 57.4766 54.8948 57.4766 55.1093 57.5156C55.5578 57.6326 55.8698 57.9056 55.8698 58.3931C55.8503 58.8806 55.5383 59.1536 55.0703 59.2316C54.8168 59.2706 54.5438 59.2511 54.2903 59.2511C50.9166 59.2706 47.5235 59.2706 44.1498 59.2706Z" fill="#A71235"/>
<path d="M44.1692 52.5234C47.5233 52.5234 50.858 52.5234 54.2121 52.5234C54.5436 52.5234 54.8751 52.5234 55.1871 52.5819C55.6357 52.6599 55.8697 52.9719 55.8697 53.4009C55.8697 53.83 55.6162 54.142 55.1676 54.2005C54.8751 54.2395 54.5826 54.2395 54.2901 54.2395C47.5623 54.2395 40.8346 54.2395 34.1068 54.2395C33.7753 54.2395 33.4048 54.298 33.1513 54.1615C32.8783 54.025 32.5857 53.6935 32.5272 53.4009C32.4492 52.9914 32.7027 52.6404 33.1513 52.5624C33.4633 52.5039 33.7948 52.5039 34.1263 52.5039C37.4609 52.5234 40.8151 52.5234 44.1692 52.5234Z" fill="#A71235"/>
<path d="M38.8065 47.5116C40.386 47.5116 41.9851 47.5116 43.5647 47.5116C43.8182 47.5116 44.0912 47.4921 44.3447 47.5506C44.7542 47.6481 45.0662 47.9601 44.9882 48.3891C44.9297 48.6816 44.6762 49.0132 44.4227 49.1887C44.2082 49.3252 43.8572 49.3057 43.5842 49.3057C40.3665 49.3057 37.1684 49.3057 33.9508 49.3057C33.6973 49.3057 33.4243 49.3057 33.1903 49.2277C32.7807 49.1107 32.4882 48.8181 32.5077 48.3891C32.5077 47.9211 32.8197 47.6091 33.2878 47.5311C33.5023 47.4921 33.7363 47.5116 33.9703 47.5116C35.5693 47.4921 37.1879 47.5116 38.8065 47.5116Z" fill="#A71235"/>
</g>
</g>
<defs>
<clipPath id="clip0_0:538">
<rect width="100" height="100" fill="white"/>
</clipPath>
<clipPath id="clip1_0:538">
<rect width="50" height="45.9243" fill="white" transform="translate(25 30)"/>
</clipPath>
</defs>
</svg>
