<svg width="100" height="100" viewBox="0 0 100 100" fill="none" xmlns="http://www.w3.org/2000/svg">
<g clip-path="url(#clip0_0:529)">
<path d="M2.35409 74.7493C3.98726 82.6116 8.70558 87.6296 16.5604 89.5227C21.3818 90.6927 26.2947 90.8749 31.2221 90.2284C34.2088 89.8341 36.7279 88.4275 38.9086 86.394C41.684 83.8059 44.7689 81.7079 48.3488 80.3783C52.1917 78.9454 56.1441 78.0291 60.2049 77.5503C65.4999 76.9213 70.7962 77.4192 76.0952 77.6307C78.2796 77.708 80.4751 77.6876 82.6407 77.4513C87.2661 76.9482 91.0348 74.6419 94.5593 71.7047C97.762 69.042 99.1816 65.582 99.724 61.641C100.611 55.2931 99.8672 49.1636 96.9077 43.408C95.1013 39.8849 92.3657 37.1301 89.1804 34.8675C85.9951 32.6048 82.7533 30.4494 79.4248 28.4076C73.2357 24.5901 67.9125 19.7795 62.9361 14.5144C60.2482 11.6861 57.569 8.8241 54.219 6.7551C49.067 3.5753 43.5441 2.15691 37.5231 3.54297C32.9801 4.58434 29.3849 7.18726 26.4078 10.6913C23.5987 14.0168 21.4777 17.7524 20.005 21.8586C19.0028 24.6746 17.9034 27.4793 17.0385 30.3456C15.3675 35.9069 12.7337 40.9576 9.44944 45.7015C7.94449 47.8618 6.51621 50.0853 5.15496 52.3263C3.29911 55.3706 2.22366 58.6625 1.93827 62.2474C1.62047 66.4267 1.51793 70.5763 2.35409 74.7493Z" fill="#F2F9F6"/>
<path d="M30 48.9986C30 46.892 30 44.7854 30 42.6789C30 40.9528 31.1691 39.7704 32.8819 39.7568C34.1462 39.7432 37.9935 39.7161 39.2577 39.7704C40.1006 39.8112 40.7939 39.1996 40.7531 38.2482C40.6987 36.9843 40.7259 33.1376 40.7395 31.8737C40.7531 30.501 41.5551 29.4409 42.8194 29.1012C43.0776 29.0332 43.3631 29.006 43.6214 29.006C47.8763 29.006 52.1448 28.9924 56.3997 29.006C58.031 29.006 59.2273 30.1749 59.2545 31.8193C59.2817 33.0833 59.3089 36.9299 59.2409 38.1939C59.2001 39.1181 59.7982 39.8112 60.8314 39.7568C62.0684 39.7025 65.8886 39.7296 67.1392 39.7432C68.5122 39.7568 69.5725 40.5587 69.9124 41.8226C69.9804 42.0537 69.994 42.3119 69.994 42.5565C69.994 46.8376 70.0076 51.1188 69.994 55.3999C69.994 57.0308 68.8249 58.2132 67.1664 58.2539C65.9701 58.2811 62.1908 58.3083 60.9945 58.2403C59.7982 58.186 59.1593 58.716 59.2273 60.0343C59.2953 61.2031 59.2545 64.9547 59.2409 66.1371C59.2273 67.4961 58.4117 68.5562 57.161 68.9096C57.0523 68.9368 56.9435 68.9775 56.8348 68.9775C55.5705 68.9911 55.2927 68.9911 54.0284 68.9775C53.6206 68.9775 53.3216 68.6514 53.308 68.298C53.2944 67.931 53.607 67.5777 54.0556 67.5777C55.1024 67.5641 55.1355 67.5913 56.1822 67.5505C56.5085 67.5369 56.8619 67.469 57.1474 67.3195C57.6232 67.0884 57.7455 66.6263 57.7455 66.1099C57.7455 64.8867 57.732 61.0944 57.7591 59.8712C57.7727 59.4499 57.8271 59.0014 57.9495 58.6073C58.3437 57.4385 59.3632 56.7589 60.7362 56.7454C61.9325 56.7318 65.7119 56.7454 66.9081 56.7454C68.0908 56.7454 68.553 56.2833 68.553 55.1145C68.553 51.0372 68.553 46.96 68.553 42.8827C68.553 42.5565 68.4986 42.2032 68.3627 41.9042C68.1316 41.4013 67.6694 41.2246 67.1256 41.2382C65.9294 41.2518 62.15 41.2518 60.9537 41.2246C60.5051 41.211 60.0429 41.1703 59.6215 41.0344C58.4388 40.6402 57.7591 39.6345 57.7455 38.2482C57.732 37.0523 57.7455 33.2736 57.7455 32.0776C57.7455 30.8544 57.2969 30.4195 56.0599 30.4195C52.0089 30.4195 47.9443 30.4195 43.8933 30.4331C43.567 30.4331 43.2136 30.4874 42.9145 30.6098C42.4115 30.8272 42.2212 31.2893 42.2348 31.8329C42.2484 33.0561 42.2484 36.8484 42.2212 38.0716C42.2076 38.4929 42.1668 38.9414 42.0309 39.3355C41.6503 40.5451 40.6171 41.2246 39.2034 41.2382C38.0207 41.2518 34.2821 41.2382 33.0994 41.2382C31.876 41.2382 31.4274 41.6867 31.4274 42.9099C31.4274 46.96 31.4274 51.0236 31.4274 55.0737C31.4274 55.3863 31.4681 55.7124 31.5769 55.9979C31.7944 56.5415 32.243 56.7589 32.8275 56.7589C33.9151 56.7454 37.5721 56.7589 38.6596 56.7589C38.8363 56.7589 39.0266 56.7589 39.2034 56.7589C41.0793 56.7997 42.2212 57.9549 42.2484 59.8441C42.262 61.0265 42.2484 64.7644 42.2484 65.9468C42.2484 67.1292 42.7106 67.5641 43.9069 67.5641C44.8177 67.5641 44.7149 67.5641 45.6257 67.5641C45.7888 67.5641 45.9519 67.5505 46.1015 67.5913C46.4141 67.6456 46.6724 67.9582 46.686 68.2572C46.6996 68.5834 46.4277 68.9232 46.0743 68.9775C45.8568 69.0183 45.6257 68.9911 45.3946 68.9911C44.4702 68.9911 44.5322 68.9911 43.6078 68.9911C41.9765 68.9775 40.7803 67.8223 40.7531 66.1778C40.7259 64.9139 40.6987 61.0672 40.7667 59.8033C40.8074 58.8655 40.2093 58.186 39.1898 58.2403C37.9255 58.2947 34.0782 58.2675 32.814 58.2539C31.4953 58.2268 30.435 57.4249 30.1088 56.1881C30.0272 55.9163 30.0272 55.6037 30.0272 55.3183C30 53.2117 30 51.1052 30 48.9986Z" fill="#00A9BF" stroke="#00A9BF"/>
<path d="M49.9808 67.0006C50.5766 66.9814 51.0186 67.4234 50.9994 68.0192C50.9802 68.5574 50.5766 68.9802 50.0192 68.9994C49.4234 69.0186 48.9814 68.5766 49.0006 67.9808C49.0198 67.4234 49.4234 67.0198 49.9808 67.0006Z" fill="#00A9BF" stroke="#00A9BF"/>
</g>
<defs>
<clipPath id="clip0_0:529">
<rect width="100" height="100" fill="white"/>
</clipPath>
</defs>
</svg>
