<svg width="414" height="282" viewBox="0 0 414 282" fill="none" xmlns="http://www.w3.org/2000/svg">
<path opacity="0.702" fill-rule="evenodd" clip-rule="evenodd" d="M625.6 240.366H319.955C265 240.366 220.413 195.78 220.413 140.824C220.334 85.7892 264.92 41.2028 319.955 41.2028H625.6C680.555 41.2028 725.142 85.7892 725.142 140.745C725.142 195.78 680.555 240.366 625.6 240.366Z" fill="#4EB387"/>
<path opacity="0.702" d="M251.862 211.158C290.735 172.285 290.735 109.259 251.862 70.3861C212.989 31.513 149.963 31.513 111.09 70.3861C72.2168 109.259 72.2168 172.285 111.09 211.158C149.963 250.031 212.989 250.031 251.862 211.158Z" fill="#3F9A74"/>
<path opacity="0.502" d="M311.603 211.159C350.476 172.286 350.476 109.26 311.603 70.3869C272.73 31.5137 209.704 31.5137 170.831 70.3869C131.957 109.26 131.957 172.286 170.831 211.159C209.704 250.032 272.73 250.032 311.603 211.159Z" fill="#3F9A74"/>
<path opacity="0.2" d="M142.624 237.616C196.126 224.983 229.256 171.37 216.623 117.867C203.99 64.3653 150.376 31.2346 96.8742 43.8679C43.372 56.5013 10.2414 110.115 22.8747 163.617C35.5081 217.119 89.1215 250.25 142.624 237.616Z" fill="#83C4A6"/>
</svg>
