<svg width="71" height="70" viewBox="0 0 71 70" fill="none" xmlns="http://www.w3.org/2000/svg">
<g opacity="0.2">
<path d="M26.5178 58.4973C28.0478 61.2069 30.3812 62.5028 33.504 62.2753C35.4217 62.1387 37.2567 61.6265 38.9993 60.8068C40.0553 60.3091 40.8193 59.4928 41.3845 58.485C42.1038 57.2023 42.9951 56.0641 44.1598 55.1511C45.4094 54.169 46.7603 53.3647 48.2028 52.7091C50.0832 51.8525 52.0969 51.4117 54.0779 50.8649C54.8934 50.6358 55.7014 50.3694 56.4729 50.0268C58.121 49.2956 59.2402 47.9998 60.1948 46.5C61.063 45.1394 61.1791 43.6948 60.9145 42.176C60.4934 39.7282 59.496 37.5533 57.7248 35.7777C56.6425 34.6903 55.3078 33.996 53.8652 33.5364C52.4226 33.0768 50.9718 32.6635 49.5023 32.3023C46.7675 31.6229 44.2352 30.4749 41.7774 29.1183C40.4517 28.3912 39.1252 27.6507 37.6446 27.282C35.3678 26.7158 33.1619 26.8435 31.1028 28.0652C29.5486 28.9853 28.5284 30.3701 27.8427 32.0147C27.1979 33.5735 26.8555 35.2025 26.7961 36.892C26.7583 38.0496 26.6832 39.2146 26.7019 40.3746C26.7409 42.6246 26.3643 44.7995 25.7114 46.938C25.4106 47.9129 25.1456 48.9021 24.9074 49.8899C24.5813 51.2325 24.5725 52.5744 24.89 53.9314C25.2655 55.5116 25.717 57.0555 26.5178 58.4973Z" fill="#EFAB49"/>
<path d="M29.0002 20.036C30.2427 22.1197 31.6758 23.5684 33.7373 24.2781C35.4756 24.8809 37.1476 24.7249 38.7025 23.7212C39.9305 22.9315 40.7355 21.7871 41.2134 20.4203C42.0451 18.0622 41.8824 15.7165 40.9877 13.4069C40.2413 11.4908 39.0562 9.90771 37.3134 8.78791C35.791 7.81265 34.1465 7.39879 32.3636 7.8812C30.4005 8.41088 29.1435 9.74358 28.393 11.5774C27.4601 13.8546 27.5512 16.1718 28.3432 18.4707C28.5555 19.0979 28.855 19.6962 29.0002 20.036Z" fill="#EFAB49"/>
<path d="M25.8337 21.9441C24.4617 19.7055 22.4886 17.9757 19.7657 17.2203C18.1324 16.7654 16.5052 16.8059 14.9785 17.5926C13.1383 18.5441 12.1666 20.123 11.93 22.1558C11.6807 24.2513 12.2634 26.1707 13.3695 27.9304C14.5137 29.7446 16.051 31.1339 18.0321 31.9932C19.6058 32.6829 21.2384 32.9304 22.9222 32.5044C25.2636 31.9116 26.8691 29.9786 27.1377 27.4564C27.34 25.5331 26.8386 23.7683 25.8337 21.9441Z" fill="#EFAB49"/>
<path d="M9.79119 43.2831C11.4828 45.9492 13.7917 47.6747 17.0002 47.9733C18.7787 48.1377 20.3843 47.6593 21.6219 46.3168C22.8975 44.9319 23.1885 43.2491 22.8435 41.4437C22.4009 39.1397 21.116 37.3572 19.2718 35.9626C17.8179 34.8652 16.1928 34.2187 14.3615 34.1676C10.666 34.0564 8.20713 36.8913 8.81079 40.5444C8.96432 41.5167 9.29956 42.4202 9.79119 43.2831Z" fill="#EFAB49"/>
<path d="M45.5871 25.382C46.3216 26.5499 47.1997 27.5459 48.3892 28.2398C50.9014 29.704 53.7314 29.096 55.3979 26.7126C56.7256 24.8131 57.0508 22.6813 56.6923 20.4402C56.3234 18.1081 55.3066 16.1175 53.3797 14.6869C51.9631 13.6306 50.3812 13.2295 48.6542 13.7494C47.1439 14.2012 46.0842 15.2137 45.3672 16.5851C44.2324 18.7625 44.1388 21.0464 44.8116 23.3786C45.0105 24.055 45.3241 24.7145 45.5871 25.382Z" fill="#EFAB49"/>
</g>
</svg>
