<svg width="500" height="156" viewBox="0 0 500 156" fill="none" xmlns="http://www.w3.org/2000/svg">
<path fill-rule="evenodd" clip-rule="evenodd" d="M12.1092 22.7977L134.471 22.7977C164.896 22.7977 189.581 47.4821 189.581 77.907C189.625 108.376 164.941 133.061 134.471 133.061L12.1092 133.061C-18.3157 133.061 -43.0001 108.376 -43.0001 77.9512C-43.0001 47.4821 -18.3157 22.7977 12.1092 22.7977Z" fill="#57BDE6"/>
<path opacity="0.702" fill-rule="evenodd" clip-rule="evenodd" d="M132.838 22.7977L302.051 22.7977C332.476 22.7977 357.161 47.4821 357.161 77.907C357.205 108.376 332.521 133.061 302.051 133.061L132.838 133.061C102.413 133.061 77.7282 108.376 77.7282 77.9512C77.7282 47.4821 102.413 22.7977 132.838 22.7977Z" fill="#4EB387"/>
<path opacity="0.702" d="M349.75 38.9685C328.229 60.4898 328.229 95.3828 349.75 116.904C371.271 138.425 406.164 138.425 427.686 116.904C449.207 95.3828 449.207 60.4898 427.686 38.9685C406.164 17.4471 371.271 17.4471 349.75 38.9685Z" fill="#3F9A74"/>
<path opacity="0.502" d="M306.676 38.9677C285.154 60.4891 285.154 95.382 306.676 116.903C328.197 138.425 363.09 138.425 384.611 116.903C406.133 95.382 406.133 60.4891 384.611 38.9677C363.09 17.4464 328.197 17.4464 306.676 38.9677Z" fill="#3F9A74"/>
<path opacity="0.2" d="M420.228 24.3207C390.607 31.3149 372.265 60.9969 379.259 90.6172C386.253 120.238 415.935 138.58 445.556 131.586C475.176 124.591 493.518 94.9093 486.524 65.289C479.53 35.6686 449.848 17.3265 420.228 24.3207Z" fill="#83C4A6"/>
</svg>
