<svg width="103" height="57" viewBox="0 0 103 57" fill="none" xmlns="http://www.w3.org/2000/svg">
<path d="M65.1191 27.1966C63.7997 27.1966 62.7602 28.9733 62.7602 31.1447C62.7602 33.3162 63.7997 35.0928 65.1191 35.0928C66.4385 35.0928 67.478 33.3162 67.478 31.1447C67.478 28.9733 66.3985 27.1966 65.1191 27.1966ZM47.4874 27.5914C46.288 27.5914 45.3284 29.2891 45.3284 31.4211C45.3284 33.5531 46.288 35.2507 47.4874 35.2507C48.6869 35.2507 49.6464 33.5531 49.6464 31.4211C49.6464 29.2891 48.6869 27.5914 47.4874 27.5914ZM11.3844 38.9225V32.4476L3.70802 18.116H12.304L16.1022 27.315L19.4606 18.1554L27.8167 18.116L24.938 22.8537L44.8886 22.8142C44.9286 23.6433 44.9686 24.9857 44.9686 25.7753C45.2085 25.42 46.8877 23.209 49.7663 22.9721C52.4851 22.7352 55.1238 24.3934 56.4032 27.0387C56.6831 26.6833 56.923 26.3675 57.2028 26.0122C57.6826 25.5384 60.6012 22.7352 65.2391 22.8537C69.7969 23.0906 72.5556 26.0122 72.9954 26.5254C73.3952 26.9992 74.7546 28.8153 74.6746 31.4606C74.5947 33.9479 73.3153 35.6061 72.9154 36.0799C72.2358 36.751 69.7969 39.1199 65.9187 39.4752C60.3614 39.949 56.7231 35.843 56.3632 35.4482C55.5236 37.5801 53.5646 39.1199 51.2456 39.4357C47.8073 39.9095 45.5683 37.3432 45.4484 37.1853V45.6343H37.732V27.7888L34.0537 27.7493V38.9225H26.5373V27.9073L22.3792 27.8283L19.7405 32.4871V38.883" fill="#007EF1"/>
<path d="M87.9537 25.3735C87.314 24.8998 86.7143 25.0577 85.7147 25.1367C83.4358 25.2551 81.8366 27.1897 81.8366 29.9534V38.7971H80.6371V23.5969H81.7566L81.7966 26.2816C82.5562 24.2286 85.6348 23.6364 87.194 23.6364" fill="#737373"/>
<path d="M97.4038 38.9047V36.1805C96.4043 38.2335 94.6451 39.1021 92.8859 39.1416C89.5275 39.1416 87.2086 36.6543 87.2086 32.4298V23.665H88.448V32.3903C88.448 35.8252 90.2072 37.6808 92.9259 37.6413C95.5247 37.6018 97.3239 35.233 97.3239 32.114V23.665H98.5633V38.8652H97.4038V38.9047Z" fill="#737373"/>
<path d="M77.6731 38.7991H75.0743V36.3512H77.6731V38.7991Z" fill="#737373"/>
<path d="M57.1257 41.5922H57.8853L58.7649 44.0005L59.6845 41.5922H60.4441L61.3637 44.0005L62.2833 41.5922H63.0429L61.4037 45.8167L60.0443 42.4608L58.7649 45.8167L57.1257 41.5922Z" fill="#717171"/>
<path d="M63.0073 41.5922H63.7669L64.6465 44.0005L65.5661 41.5922H66.3257L67.2453 44.0005L68.1648 41.5922H68.9245L67.2853 45.8167L65.9259 42.4608L64.6465 45.8167L63.0073 41.5922Z" fill="#717171"/>
<path d="M68.8889 41.5922H69.6486L70.5281 44.0005L71.4477 41.5922H72.2074L73.1269 44.0005L74.0465 41.5922H74.8061L73.1669 45.8167L71.8075 42.4608L70.5281 45.8167L68.8889 41.5922Z" fill="#717171"/>
<path d="M74.9111 45.3514C74.9111 45.2724 74.9511 45.154 75.031 45.1145C75.111 45.075 75.1909 44.9961 75.2709 44.9961C75.3909 44.9961 75.4708 45.0355 75.5108 45.1145C75.5908 45.154 75.5908 45.2329 75.5908 45.3514C75.5908 45.4304 75.5908 45.5093 75.5108 45.5883C75.4308 45.6672 75.3509 45.6672 75.2709 45.6672C75.1909 45.6672 75.111 45.6278 75.031 45.5883C74.9511 45.5488 74.9111 45.4304 74.9111 45.3514Z" fill="#717171"/>
<path d="M76.2796 44.3544V41.5907H76.9592V44.3544C76.9592 44.5913 77.0792 44.7492 77.2391 44.8677C77.399 44.9861 77.5989 45.0256 77.8388 45.0256C78.0787 45.0256 78.2786 44.9466 78.4385 44.8282C78.5985 44.7097 78.6784 44.5518 78.6784 44.3149V41.5513H79.3581V44.3149C79.3581 44.5123 79.3181 44.7097 79.2382 44.9072C79.1582 45.1046 79.0383 45.223 78.9183 45.3414C78.7984 45.4599 78.5985 45.5389 78.4385 45.6178C78.2386 45.6968 78.0387 45.6968 77.8388 45.6968C77.559 45.6968 77.2791 45.6573 77.0792 45.5389C76.8393 45.4204 76.6794 45.2625 76.5194 45.0651C76.3195 44.8677 76.2796 44.6308 76.2796 44.3544Z" fill="#0084E4"/>
<path d="M79.9435 42.2153V41.5836H82.3423V42.2153H81.4627V45.6501H80.7831V42.2153H79.9435Z" fill="#0084E4"/>
<path d="M83.6019 43.2862H84.2816H84.3216C84.3216 43.2862 84.3616 43.2862 84.4016 43.2862C84.4415 43.2862 84.4815 43.2862 84.5215 43.2467C84.5615 43.2467 84.6015 43.2072 84.6814 43.2072C84.7214 43.1677 84.7614 43.1677 84.8014 43.1282C84.8413 43.0888 84.8813 43.0493 84.8813 43.0098C84.9213 42.9703 84.9213 42.8914 84.9213 42.8124C84.9213 42.7334 84.8813 42.6545 84.8413 42.5755C84.8014 42.4965 84.7214 42.4571 84.6814 42.4176C84.6015 42.3781 84.5615 42.3781 84.4815 42.3386C84.4016 42.3386 84.3616 42.2991 84.3216 42.2991H84.2416H83.6019V43.2862ZM82.9222 45.655V41.5885H84.2816C84.2816 41.5885 84.3216 41.5885 84.3616 41.5885C84.4016 41.5885 84.4415 41.5885 84.5615 41.628C84.6414 41.628 84.7614 41.6674 84.8413 41.7069C84.9213 41.7464 85.0413 41.7859 85.1212 41.8254C85.2412 41.9043 85.3211 41.9438 85.4011 42.0228C85.4811 42.1017 85.521 42.2202 85.601 42.3386C85.641 42.4571 85.681 42.615 85.681 42.7729C85.681 43.2862 85.4011 43.681 84.8813 43.8389L85.7209 45.6155H84.9613L84.1617 43.9179H83.6019V45.6155C83.6019 45.655 82.9222 45.655 82.9222 45.655Z" fill="#0084E4"/>
<path d="M87.1194 42.9392C87.0394 43.1366 86.9595 43.3735 86.9595 43.6104C86.9595 43.8473 86.9994 44.0842 87.0794 44.2816C87.1594 44.479 87.3193 44.6764 87.5192 44.7948C87.7191 44.9527 87.959 44.9922 88.2389 44.9922C88.5187 44.9922 88.7586 44.9133 88.9585 44.7948C89.1584 44.6369 89.3183 44.479 89.3983 44.2816C89.4783 44.0842 89.5582 43.8473 89.5582 43.6104C89.5582 43.3735 89.5183 43.1366 89.3983 42.9392C89.3183 42.7418 89.1584 42.5444 88.9585 42.426C88.7586 42.268 88.5187 42.2285 88.2389 42.2285C87.959 42.2285 87.7191 42.3075 87.5192 42.426C87.3593 42.5444 87.1993 42.7023 87.1194 42.9392ZM86.3997 44.3605C86.3198 44.1236 86.2798 43.8473 86.2798 43.6104C86.2798 43.334 86.3198 43.0971 86.3997 42.8602C86.4797 42.6234 86.5996 42.3865 86.7595 42.1891C86.9195 41.9917 87.1594 41.8337 87.3992 41.7153C87.6791 41.5968 87.959 41.5179 88.2788 41.5179C88.5987 41.5179 88.8786 41.5968 89.1584 41.7153C89.4383 41.8337 89.6382 41.9917 89.7981 42.1891C89.9581 42.3865 90.078 42.6234 90.158 42.8602C90.2379 43.0971 90.2779 43.3735 90.2779 43.6104C90.2779 43.8868 90.2379 44.1236 90.158 44.3605C90.078 44.5974 89.9581 44.8343 89.7981 45.0317C89.6382 45.2291 89.4383 45.387 89.1584 45.5055C88.8786 45.6239 88.5987 45.7029 88.2788 45.7029C87.959 45.7029 87.6391 45.6239 87.3992 45.5055C87.1194 45.387 86.9195 45.2291 86.7595 45.0317C86.5996 44.8343 86.4797 44.6369 86.3997 44.3605Z" fill="#0084E4"/>
<path d="M90.8087 45.3514C90.8087 45.2724 90.8487 45.154 90.9286 45.1145C91.0086 45.0355 91.0886 44.9961 91.1685 44.9961C91.2885 44.9961 91.3684 45.0355 91.4084 45.1145C91.4884 45.154 91.4884 45.2329 91.4884 45.3514C91.4884 45.4304 91.4884 45.5093 91.4084 45.5883C91.3284 45.6672 91.2485 45.6672 91.1685 45.6672C91.0886 45.6672 91.0086 45.6278 90.9286 45.5883C90.8487 45.5093 90.8087 45.4304 90.8087 45.3514Z" fill="#737373"/>
<path d="M92.8573 43.2862H93.537H93.577C93.577 43.2862 93.617 43.2862 93.6569 43.2862C93.6969 43.2862 93.7369 43.2862 93.7769 43.2467C93.8169 43.2467 93.8568 43.2072 93.9368 43.2072C93.9768 43.1677 94.0168 43.1677 94.0567 43.1282C94.0967 43.0888 94.1367 43.0493 94.1367 43.0098C94.1767 42.9703 94.1767 42.8914 94.1767 42.8124C94.1767 42.7334 94.1367 42.6545 94.0967 42.5755C94.0567 42.4965 93.9768 42.4571 93.9368 42.4176C93.8568 42.3781 93.8169 42.3781 93.7369 42.3386C93.6569 42.3386 93.617 42.2991 93.577 42.2991H93.497H92.8573V43.2862ZM92.1776 45.655V41.5885H93.537C93.537 41.5885 93.577 41.5885 93.617 41.5885C93.6569 41.5885 93.6969 41.5885 93.8169 41.628C93.8968 41.628 94.0168 41.6674 94.0967 41.7069C94.1767 41.7464 94.2966 41.7859 94.3766 41.8254C94.4965 41.9043 94.5765 41.9438 94.6565 42.0228C94.7364 42.1017 94.7764 42.2202 94.8564 42.3386C94.8964 42.4571 94.9363 42.615 94.9363 42.7729C94.9363 43.2862 94.6565 43.681 94.1367 43.8389L94.9763 45.6155H94.2167L93.417 43.9179H92.8573V45.6155C92.8573 45.655 92.1776 45.655 92.1776 45.655Z" fill="#717171"/>
<path d="M95.6947 44.3544V41.5907H96.3743V44.3544C96.3743 44.5913 96.4943 44.7492 96.6542 44.8677C96.8141 44.9861 97.014 45.0256 97.2539 45.0256C97.4938 45.0256 97.6937 44.9466 97.8536 44.8282C98.0136 44.7097 98.0935 44.5518 98.0935 44.3149V41.5513H98.7732V44.3149C98.7732 44.5123 98.7332 44.7097 98.6533 44.9072C98.5733 45.1046 98.4534 45.223 98.3334 45.3414C98.2135 45.4599 98.0136 45.5389 97.8536 45.6178C97.6537 45.6968 97.4538 45.6968 97.2539 45.6968C96.9741 45.6968 96.6942 45.6573 96.4943 45.5389C96.2544 45.4204 96.0945 45.2625 95.9345 45.0651C95.7346 44.8677 95.6947 44.6308 95.6947 44.3544Z" fill="#717171"/>
</svg>
