<svg width="98" height="28" viewBox="0 0 98 28" fill="none" xmlns="http://www.w3.org/2000/svg">
<g clip-path="url(#clip0_0:137)">
<path d="M3.77347 10.8574H8.18256C8.53329 10.8574 8.88401 10.9061 9.18463 11.1011C9.43515 11.2473 9.53535 11.5397 9.53535 11.8321C9.53535 12.0758 9.43515 12.3195 9.28484 12.5144C9.03432 12.7094 8.7337 12.8068 8.43308 12.8068H2.22027C1.86955 12.8556 1.46872 12.7094 1.2182 12.4657C0.967688 12.2707 0.867481 11.9783 0.867481 11.6859C0.867481 11.3935 0.967688 11.1498 1.118 10.9061C1.2182 10.6137 1.41862 10.37 1.61903 10.1263C2.37058 9.34655 3.07203 8.71298 3.67327 8.17688C4.07409 7.78699 4.52502 7.44583 4.97595 7.10468C5.37678 6.81226 5.77761 6.4711 6.12833 6.12995C6.42895 5.83753 6.62936 5.49637 6.82977 5.15522C6.98008 4.8628 7.08029 4.52164 7.08029 4.18049C7.08029 3.83933 6.98008 3.49818 6.82977 3.2545C6.67946 2.96208 6.42895 2.76713 6.12833 2.62092C5.7275 2.37724 5.42688 2.27977 5.07616 2.27977C4.37471 2.27977 3.67327 2.62092 3.32254 3.2545C3.22234 3.44944 3.12213 3.69312 3.07203 3.88807C2.97182 4.22923 2.82151 4.52164 2.6211 4.76533C2.42068 4.96027 2.17017 5.05774 1.86955 5.05774C1.61903 5.05774 1.36851 4.96027 1.1681 4.76533C0.967688 4.57038 0.867481 4.3267 0.867481 4.03428C0.867481 3.64439 0.967688 3.20576 1.118 2.8646C1.31841 2.42598 1.61903 2.08482 1.91965 1.74367C2.32048 1.40251 2.77141 1.11009 3.27244 0.915146C3.87368 0.7202 4.52502 0.573991 5.12626 0.622727C5.87781 0.622727 6.62936 0.7202 7.33081 1.01262C7.73163 1.20756 8.08236 1.45125 8.38298 1.74367C8.98422 2.37724 9.33494 3.20576 9.33494 4.08302C9.33494 4.71659 9.18463 5.3989 8.83391 5.935C8.53329 6.42237 8.18256 6.86099 7.78174 7.25089C7.43101 7.59204 6.82977 8.07941 5.97802 8.71298C5.32668 9.20035 4.77554 9.73645 4.2244 10.2725C4.07409 10.4675 3.92378 10.6624 3.77347 10.8574Z" fill="#6E8CC7"/>
<path d="M12.3912 0.720219H15.648C16.3995 0.720219 17.1009 0.768956 17.8024 0.963902C18.4036 1.11011 19.0049 1.40253 19.4558 1.84116C20.7585 2.91336 21.4098 4.5704 21.4098 6.76354C21.4098 7.44585 21.3597 8.07942 21.2094 8.76173C21.1092 9.34657 20.9088 9.88267 20.6082 10.37C20.3577 10.8574 20.0069 11.296 19.556 11.6372C19.2554 11.9296 18.8546 12.1733 18.4537 12.3195C18.0529 12.5144 17.602 12.6119 17.2012 12.7094C16.7001 12.8069 16.1991 12.8069 15.648 12.8069H12.3912C12.0405 12.8069 11.6898 12.7581 11.3391 12.6119C11.1387 12.4657 10.9382 12.2708 10.8881 12.0271C10.7879 11.6859 10.7879 11.3935 10.7879 11.0523V2.18231C10.7378 1.79242 10.8881 1.35379 11.1387 1.06137C11.5395 0.768956 11.9904 0.671483 12.3912 0.720219ZM13.3933 2.66968V10.8574H15.2972C15.6981 10.8574 16.0488 10.8574 16.2993 10.8087C16.5498 10.7599 16.8003 10.7112 17.0508 10.6625C17.3014 10.565 17.5018 10.4188 17.7022 10.2726C18.5539 9.59025 18.9548 8.37184 18.9548 6.7148C19.0049 5.78881 18.8045 4.86282 18.4036 4.0343C18.103 3.4982 17.6521 3.10831 17.0508 2.91336C16.3995 2.71841 15.7482 2.66968 15.0968 2.66968H13.3933Z" fill="#6E8CC7"/>
<path d="M28.4243 0.476449C29.5767 0.427713 30.729 0.720132 31.7311 1.25623C32.633 1.7436 33.3845 2.52338 33.8355 3.40064C34.3365 4.4241 34.587 5.54504 34.5369 6.71472C34.5369 7.59197 34.4367 8.42049 34.1361 9.24901C33.8856 9.98006 33.4847 10.6624 32.9837 11.2472C32.4326 11.832 31.7812 12.2707 31.0798 12.5144C29.3763 13.0992 27.5725 13.0992 25.869 12.5144C25.1175 12.2219 24.4661 11.7833 23.9651 11.1985C23.414 10.6136 23.0632 9.93132 22.8127 9.20028C22.5622 8.37176 22.4119 7.54324 22.4119 6.66598C22.4119 5.78872 22.5622 4.91147 22.8127 4.13168C23.0632 3.40064 23.4641 2.71833 24.0152 2.13349C24.5162 1.59739 25.1676 1.15876 25.9191 0.915077C26.6707 0.622659 27.5725 0.476449 28.4243 0.476449ZM32.0317 6.71472C32.0317 5.93493 31.8814 5.15515 31.5808 4.4241C31.3303 3.83927 30.8794 3.30316 30.3282 2.96201C29.7771 2.62085 29.1257 2.47464 28.4744 2.47464C27.9734 2.47464 27.5224 2.57212 27.0715 2.76706C26.6707 2.96201 26.2699 3.20569 25.9692 3.59558C25.6185 3.93674 25.368 4.37537 25.2177 4.86273C25.0173 5.44757 24.9672 6.08114 24.9672 6.71472C24.9672 7.34829 25.0674 7.98186 25.2177 8.5667C25.368 9.05407 25.6185 9.54143 25.9692 9.93132C26.2699 10.2725 26.6707 10.5649 27.0715 10.7598C28.0736 11.1985 29.2761 11.101 30.228 10.5649C30.7792 10.2237 31.2301 9.68764 31.5307 9.1028C31.8814 8.37176 32.0317 7.54324 32.0317 6.71472Z" fill="#6E8CC7"/>
<path d="M38.4951 10.8574H42.9041C43.2549 10.8574 43.6056 10.9061 43.9062 11.1011C44.1567 11.2473 44.2569 11.5397 44.2569 11.8321C44.2569 12.0758 44.1567 12.3195 43.9563 12.5144C43.7058 12.7094 43.4052 12.8068 43.1046 12.8068H36.9419C36.5911 12.8556 36.1903 12.7094 35.9398 12.4657C35.6893 12.2707 35.5891 11.9783 35.5891 11.6859C35.5891 11.3935 35.6893 11.1498 35.8396 10.9061C35.9398 10.6137 36.1402 10.37 36.3406 10.1263C37.0922 9.34655 37.7936 8.71298 38.3949 8.17688C38.7957 7.78699 39.2466 7.44583 39.6975 7.10468C40.0984 6.81226 40.4992 6.4711 40.8499 6.12995C41.1505 5.83753 41.3509 5.49637 41.5514 5.15522C41.7017 4.8628 41.8019 4.52164 41.8019 4.18049C41.8019 3.83933 41.7017 3.49818 41.5514 3.2545C41.4011 2.96208 41.1505 2.76713 40.8499 2.62092C40.5493 2.47471 40.1986 2.37724 39.8979 2.37724C39.1965 2.37724 38.5452 2.71839 38.1443 3.30323C37.9439 3.44944 37.8938 3.69312 37.7936 3.88807C37.6934 4.18049 37.5431 4.47291 37.3427 4.71659C37.1423 4.91154 36.8918 5.00901 36.5911 5.00901C36.3406 5.00901 36.04 4.91154 35.8897 4.76533C35.6893 4.57038 35.5891 4.27796 35.5891 4.03428C35.5891 3.64439 35.6893 3.20576 35.8897 2.8646C36.0901 2.42598 36.3406 2.08482 36.6913 1.74367C37.0922 1.40251 37.5431 1.11009 38.0441 0.915146C38.6454 0.7202 39.2967 0.573991 39.8979 0.622727C40.6495 0.622727 41.401 0.7202 42.1025 1.01262C42.5033 1.20756 42.854 1.45125 43.1547 1.74367C43.7559 2.37724 44.1066 3.20576 44.1066 4.08302C44.1066 4.71659 43.9563 5.3989 43.6056 5.935C43.305 6.42237 42.9543 6.86099 42.5534 7.25089C42.2027 7.59204 41.6015 8.07941 40.7497 8.71298C40.0984 9.20035 39.5472 9.73645 38.9961 10.2725C38.7957 10.4675 38.6454 10.6624 38.4951 10.8574Z" fill="#6E8CC7"/>
<path d="M56.9331 7.88435V10.2237C56.9331 10.4674 56.9331 10.7111 56.8329 10.9547C56.7828 11.1497 56.6324 11.2959 56.4821 11.4421C56.2817 11.5883 56.0813 11.7345 55.8308 11.8807C55.1294 12.2706 54.4279 12.5631 53.6764 12.758C52.9248 12.9529 52.1733 13.0504 51.4217 13.0504C50.5198 13.0504 49.6681 12.9042 48.8163 12.6118C48.0648 12.3681 47.3633 11.9295 46.8122 11.3934C46.2611 10.8085 45.8101 10.175 45.5596 9.39518C45.259 8.56666 45.1087 7.68941 45.1087 6.81215C45.1087 5.93489 45.259 5.05764 45.5596 4.22912C45.8101 3.49807 46.2611 2.81576 46.8122 2.23092C47.4134 1.69482 48.0648 1.25619 48.8664 0.963775C49.7182 0.671356 50.6702 0.525146 51.6221 0.525146C52.3737 0.525146 53.1252 0.622619 53.8267 0.866302C54.3778 1.06125 54.9289 1.30493 55.3799 1.69482C55.7306 1.98724 56.0312 2.3284 56.2817 2.76702C56.4821 3.05944 56.5823 3.4006 56.5823 3.74175C56.5823 4.03417 56.4821 4.32659 56.2316 4.52154C56.0312 4.71648 55.6805 4.86269 55.3799 4.86269C55.2296 4.86269 55.0291 4.81395 54.8788 4.71648C54.7285 4.61901 54.5782 4.52154 54.478 4.37533C54.2275 3.98544 53.977 3.64428 53.6764 3.30312C53.4258 3.05944 53.1252 2.81576 52.8246 2.66955C52.3737 2.4746 51.9227 2.42587 51.4217 2.42587C50.8706 2.42587 50.3695 2.52334 49.8685 2.71829C49.4176 2.91323 49.0167 3.20565 48.7161 3.54681C48.3153 3.9367 48.0648 4.37533 47.9145 4.86269C47.7141 5.44753 47.664 6.03237 47.664 6.66594C47.664 8.0793 48.0147 9.1515 48.666 9.93128C49.3675 10.7111 50.4196 11.1497 51.4718 11.0522C52.0229 11.0522 52.5741 11.0035 53.1252 10.8085C53.6764 10.6623 54.1774 10.4186 54.6784 10.175V8.22551H52.7244C52.3737 8.22551 51.9728 8.17677 51.6722 8.03056C51.4217 7.88435 51.2714 7.59193 51.3215 7.34825C51.3215 7.10457 51.4217 6.86089 51.6221 6.66594C51.8726 6.47099 52.1232 6.37352 52.4238 6.42226H55.2797C55.5803 6.42226 55.8809 6.47099 56.1815 6.51973C56.432 6.56847 56.6324 6.71468 56.7828 6.90962C56.883 7.25078 56.9331 7.5432 56.9331 7.88435Z" fill="#6E8CC7"/>
<path d="M64.0979 0.476449C65.2502 0.427713 66.4026 0.720132 67.4047 1.25623C68.3065 1.7436 69.0581 2.52338 69.509 3.40064C70.01 4.4241 70.2606 5.54504 70.2105 6.71472C70.2105 7.59197 70.1103 8.42049 69.8096 9.24901C69.5591 9.98006 69.1583 10.6624 68.6573 11.2472C68.1061 11.832 67.4548 12.2707 66.7533 12.5144C65.0498 13.0992 63.2461 13.0992 61.5426 12.5144C60.791 12.2219 60.1397 11.7833 59.6387 11.1985C59.1376 10.6136 58.7368 9.93132 58.4863 9.20028C58.2358 8.37176 58.0855 7.54324 58.0855 6.66598C58.0855 5.78872 58.1857 4.9602 58.4863 4.13168C58.7368 3.40064 59.1376 2.71833 59.6888 2.13349C60.2399 1.59739 60.8912 1.15876 61.5927 0.915077C62.3442 0.622659 63.196 0.476449 64.0979 0.476449ZM67.6552 6.71472C67.6552 5.93493 67.5049 5.15515 67.2043 4.4241C66.9537 3.83927 66.5028 3.30316 65.9517 2.96201C65.4005 2.62085 64.7492 2.47464 64.0979 2.47464C63.5968 2.47464 63.1459 2.57212 62.695 2.76706C62.2941 2.96201 61.8933 3.20569 61.5927 3.59558C61.242 3.98547 60.9915 4.47284 60.8411 4.9602C60.6407 5.54504 60.5906 6.17862 60.5906 6.81219C60.5906 7.44576 60.6908 8.07934 60.8411 8.66417C60.9915 9.15154 61.242 9.6389 61.5927 10.0288C61.8933 10.37 62.2941 10.6624 62.695 10.8573C63.697 11.2959 64.8995 11.1985 65.8515 10.6624C66.4026 10.3212 66.8535 9.78511 67.1542 9.20028C67.5049 8.37176 67.6552 7.54324 67.6552 6.71472Z" fill="#6E8CC7"/>
<path d="M72.1144 13.0017C71.7636 13.0017 71.463 12.9043 71.2125 12.6606C70.962 12.4169 70.8117 12.0757 70.8117 11.7346C70.8117 11.3934 70.962 11.101 71.1624 10.8573C71.4129 10.6136 71.7135 10.4674 72.0643 10.5162C72.415 10.5162 72.7156 10.6136 72.9661 10.8573C73.4672 11.3447 73.4672 12.1732 72.9661 12.6606C72.7657 12.8555 72.4651 13.0017 72.1144 13.0017Z" fill="#6E8CC7"/>
<path d="M78.8282 7.59212H77.9764V11.491C78.0266 11.8809 77.8762 12.3196 77.6257 12.612C77.3752 12.8557 77.0746 13.0019 76.7239 12.9531C76.3731 12.9531 76.0224 12.8557 75.7719 12.5632C75.5214 12.2221 75.4212 11.8322 75.4212 11.4423V2.18237C75.3711 1.79248 75.5214 1.35385 75.7719 1.06143C76.0725 0.817748 76.5235 0.671539 76.9243 0.720275H81.0328C81.5338 0.720275 81.9847 0.720275 82.4857 0.769012C82.8365 0.817748 83.2373 0.915221 83.588 1.06143C83.9888 1.20764 84.3396 1.45132 84.6402 1.74374C84.9408 2.03616 85.1913 2.37732 85.3416 2.76721C85.4919 3.1571 85.5921 3.59573 85.5921 4.03435C85.6423 4.81414 85.3416 5.59392 84.7905 6.17876C84.1392 6.7636 83.3375 7.15349 82.4356 7.34843C82.9367 7.59212 83.3375 7.98201 83.7383 8.3719C84.1392 8.81053 84.4899 9.29789 84.8406 9.83399C85.1412 10.2726 85.3917 10.7112 85.5921 11.1986C85.7425 11.4423 85.7926 11.7347 85.8427 12.0271C85.8427 12.2221 85.7926 12.3683 85.6924 12.5145C85.5921 12.6607 85.4418 12.8069 85.2414 12.9044C85.041 13.0019 84.8406 13.0506 84.5901 13.0506C84.3396 13.0506 84.0891 13.0019 83.8886 12.8557C83.6882 12.7094 83.5379 12.5632 83.3876 12.3683C83.2373 12.1733 83.087 11.8809 82.8365 11.491L81.8344 9.83399C81.5338 9.34663 81.2332 8.908 80.8824 8.46937C80.6319 8.17695 80.3814 7.98201 80.0307 7.8358C79.6299 7.68959 79.229 7.59212 78.8282 7.59212ZM80.2812 2.52352H77.9764V5.8376H80.2311C80.7321 5.8376 81.2332 5.78887 81.7342 5.69139C82.0849 5.59392 82.4356 5.44771 82.6862 5.15529C82.9367 4.86287 83.0369 4.52172 82.9868 4.13183C82.9868 3.83941 82.8866 3.49825 82.7363 3.25457C82.5358 3.01089 82.2853 2.81594 82.0348 2.66973C81.4336 2.57226 80.8824 2.52352 80.2812 2.52352Z" fill="#6E8CC7"/>
<path d="M86.8448 7.78694V1.93856C86.7946 1.54867 86.945 1.15878 87.1955 0.817626C87.446 0.573944 87.7466 0.427734 88.0973 0.427734C88.4481 0.427734 88.7988 0.573944 89.0493 0.817626C89.2998 1.11004 89.4 1.49994 89.4 1.88983V7.83568C89.4 8.42051 89.4501 8.95662 89.6505 9.54145C89.8008 9.98008 90.1015 10.37 90.4522 10.6137C90.9532 10.9061 91.5545 11.0035 92.1056 11.0035C93.1077 11.0035 93.759 10.7599 94.2099 10.2238C94.6609 9.54145 94.8613 8.71293 94.8112 7.93315V1.93856C94.7611 1.54867 94.9114 1.15878 95.1619 0.817626C95.4124 0.573944 95.7631 0.427734 96.1139 0.476471C96.4646 0.476471 96.8153 0.573944 97.0157 0.866363C97.2662 1.15878 97.4166 1.59741 97.3664 1.9873V7.83568C97.3664 8.61546 97.2662 9.44398 97.0658 10.2238C96.8654 10.8573 96.5147 11.4422 96.0137 11.8808C95.5627 12.2707 95.0116 12.5631 94.4104 12.7093C93.7089 12.9043 93.0075 13.0017 92.306 13.0017C91.4543 13.0017 90.6526 12.9043 89.8509 12.7093C89.1996 12.5631 88.6485 12.222 88.1474 11.7833C87.6965 11.3447 87.3458 10.7599 87.1955 10.175C86.8949 9.34651 86.7946 8.56672 86.8448 7.78694Z" fill="#6E8CC7"/>
<path d="M7.88195 24.8446C7.93205 24.942 7.93205 25.0395 7.98215 25.1857C7.98215 25.2344 7.98215 25.3319 7.93205 25.3807C7.88195 25.4294 7.78174 25.4781 7.68153 25.4781C7.58133 25.4781 7.43102 25.4781 7.23061 25.4781H6.72957C6.62937 25.4781 6.57926 25.4781 6.47906 25.4294C6.42895 25.4294 6.37885 25.3807 6.32875 25.3319C6.27864 25.2832 6.27864 25.2344 6.27864 25.1857L5.77761 23.6749H2.87162L2.37059 25.137C2.37059 25.1857 2.37059 25.2832 2.32048 25.3319C2.27038 25.3807 2.22028 25.3807 2.17017 25.4294C2.06997 25.4781 2.01986 25.4781 1.91966 25.4781C1.81945 25.4781 1.66914 25.4781 1.51883 25.4781C1.36852 25.4781 1.21821 25.4781 1.0679 25.4781C0.967693 25.4781 0.917589 25.4294 0.867486 25.3807C0.817383 25.3319 0.817383 25.2832 0.817383 25.1857C0.817383 25.0882 0.867486 24.942 0.917589 24.8446L3.32255 18.1677C3.32255 18.1189 3.37265 18.0702 3.42275 18.0215C3.47286 17.9727 3.52296 17.924 3.57306 17.924C3.67327 17.924 3.72337 17.8752 3.82358 17.8752H4.32461H4.87575C4.97596 17.8752 5.07616 17.8752 5.17637 17.924C5.22647 17.924 5.32668 17.9727 5.32668 18.0215C5.37678 18.0702 5.37678 18.1189 5.42689 18.2164L7.88195 24.8446ZM4.32461 19.3373L3.22234 22.5539H5.42689L4.32461 19.3373Z" fill="#6E8CC7"/>
<path d="M16.65 21.4331C16.65 21.823 16.5999 22.2129 16.4496 22.6028C16.2993 22.9439 16.0989 23.2363 15.8484 23.48C15.5478 23.7237 15.197 23.9674 14.8463 24.1136C14.3954 24.2598 13.9444 24.3573 13.4434 24.406V25.2833C13.4434 25.332 13.4434 25.3807 13.3933 25.3807C13.3432 25.4295 13.2931 25.4295 13.243 25.4295C13.1428 25.4295 13.0927 25.4782 12.9925 25.4782H12.5917H12.1908C12.0906 25.4782 12.0405 25.4782 11.9403 25.4295C11.8902 25.4295 11.8401 25.3807 11.79 25.332C11.8902 25.332 11.8401 25.2833 11.8401 25.2345V24.3573C11.3892 24.3573 10.8881 24.2598 10.4372 24.1136C10.0865 24.0161 9.73577 23.8212 9.43515 23.5775C9.18464 23.3338 8.93412 23.0414 8.83391 22.7002C8.6836 22.3104 8.6335 21.8717 8.6335 21.4818C8.6335 21.0919 8.6836 20.7508 8.83391 20.3609C8.98422 20.0197 9.18464 19.7273 9.43515 19.4836C9.73577 19.24 10.0865 18.9963 10.4372 18.8501C10.8881 18.7039 11.3391 18.6064 11.8401 18.5576V17.7291C11.8401 17.6804 11.8401 17.6804 11.8902 17.6317C11.9403 17.5829 11.9904 17.5829 12.0405 17.5829C12.1407 17.5829 12.1908 17.5342 12.291 17.5342C12.3912 17.5342 12.5416 17.5342 12.6418 17.5342C12.742 17.5342 12.8923 17.5342 13.0426 17.5342C13.1428 17.5342 13.1929 17.5342 13.2931 17.5829C13.3432 17.5829 13.3933 17.6317 13.4434 17.6317C13.4935 17.6804 13.4935 17.6804 13.4935 17.7291V18.5576C13.9444 18.5576 14.4455 18.6551 14.8964 18.8013C15.2471 18.8988 15.5979 19.0937 15.8985 19.3374C16.149 19.5811 16.3995 19.8735 16.4997 20.2147C16.5498 20.6533 16.65 21.0432 16.65 21.4331ZM11.8902 19.7761C11.6397 19.7761 11.3391 19.8735 11.1387 19.971C10.9383 20.0685 10.7879 20.1659 10.6376 20.3609C10.4873 20.5071 10.4372 20.6533 10.337 20.8483C10.2869 21.0432 10.2368 21.2381 10.2368 21.4818C10.2368 21.7255 10.2368 21.9692 10.337 22.1641C10.4372 22.554 10.7378 22.8952 11.1387 23.0414C11.3892 23.1389 11.6397 23.1876 11.8902 23.2363V19.7761ZM15.0467 21.5306C15.0467 21.2869 14.9966 21.0919 14.9465 20.8483C14.8964 20.6533 14.7962 20.4584 14.696 20.3122C14.5457 20.1659 14.3954 20.0197 14.195 19.971C13.9444 19.8735 13.6939 19.8248 13.3933 19.7761V23.2363C13.6438 23.1876 13.9444 23.1389 14.1449 23.0414C14.3453 22.9439 14.4956 22.8465 14.6459 22.6515C14.7962 22.5053 14.8463 22.3104 14.9465 22.1154C14.9966 21.9205 15.0467 21.7255 15.0467 21.5306Z" fill="#6E8CC7"/>
<path d="M24.867 25.2345C24.867 25.2832 24.867 25.332 24.8169 25.332C24.7668 25.3807 24.7167 25.3807 24.6666 25.4295C24.5663 25.4295 24.5162 25.4782 24.416 25.4782C24.3158 25.4782 24.1655 25.4782 24.0152 25.4782C23.8649 25.4782 23.7146 25.4782 23.6144 25.4782C23.5142 25.4782 23.4641 25.4782 23.3639 25.4295C23.3138 25.4295 23.2637 25.3807 23.2136 25.332C23.2136 25.2832 23.1635 25.2832 23.1635 25.2345V21.2381C23.1635 21.0919 23.1635 20.9457 23.1635 20.7995C23.1635 20.6533 23.1635 20.5071 23.1635 20.4096L23.0632 20.6045L22.9129 20.8482L22.8628 21.0919L22.7125 21.3356L20.0069 25.2345C19.9568 25.2832 19.9568 25.332 19.9067 25.332C19.8566 25.3807 19.8065 25.3807 19.7564 25.4295C19.7063 25.4295 19.6061 25.4782 19.556 25.4782H19.2554C19.1051 25.4782 18.9548 25.4782 18.8546 25.4782C18.7544 25.4782 18.7043 25.4782 18.6041 25.4295C18.5539 25.4295 18.5038 25.3807 18.5038 25.332C18.5038 25.2832 18.4537 25.2832 18.4537 25.2345V18.0703C18.4537 18.0215 18.4537 17.9728 18.5038 17.9728C18.5539 17.924 18.6041 17.924 18.6542 17.8753C18.7544 17.8753 18.8045 17.8266 18.9047 17.8266C19.0049 17.8266 19.1552 17.8266 19.3055 17.8266C19.4558 17.8266 19.6061 17.8266 19.7063 17.8266C19.8065 17.8266 19.8566 17.8266 19.9568 17.8753C20.0069 17.8753 20.057 17.924 20.1072 17.9728C20.1072 18.0215 20.1573 18.0215 20.1573 18.0703V22.0666C20.1573 22.2128 20.1573 22.3103 20.1573 22.4565C20.1573 22.6027 20.1573 22.749 20.1573 22.8464C20.2074 22.749 20.3076 22.6027 20.4078 22.4078C20.508 22.2616 20.6082 22.0666 20.7585 21.9204L23.4641 18.0215C23.5142 17.9728 23.5142 17.9728 23.5643 17.924C23.6144 17.8753 23.6645 17.8753 23.7146 17.8266C23.7647 17.8266 23.8649 17.7778 23.915 17.7778H24.2156C24.3158 17.7778 24.4661 17.7778 24.5663 17.7778C24.6666 17.7778 24.7167 17.7778 24.8169 17.8266C24.867 17.8266 24.9171 17.8753 24.9171 17.924C24.9171 17.9728 24.9672 17.9728 24.9672 18.0215L24.867 25.2345Z" fill="#6E8CC7"/>
<path d="M36.541 24.9908C36.541 25.137 36.4909 25.2832 36.3907 25.3807C36.2905 25.4781 36.1903 25.5269 36.04 25.5269H27.6728C27.5224 25.5269 27.4222 25.4781 27.322 25.3807C27.2218 25.2832 27.1717 25.137 27.1717 24.9908V18.0702C27.1717 18.0215 27.1717 18.0215 27.2218 17.9727C27.2719 17.924 27.322 17.924 27.3721 17.924C27.4723 17.924 27.5224 17.8752 27.6226 17.8752C27.7229 17.8752 27.8231 17.8752 27.9734 17.8752C28.1237 17.8752 28.2239 17.8752 28.3241 17.8752C28.4243 17.8752 28.4744 17.8752 28.5746 17.924C28.6247 17.924 28.6748 17.9727 28.7249 17.9727C28.775 18.0215 28.775 18.0215 28.775 18.0702V24.211H31.1299V18.0702C31.1299 18.0215 31.1299 18.0215 31.18 17.9727C31.2301 17.924 31.2802 17.924 31.3303 17.924C31.4305 17.924 31.4806 17.8752 31.5808 17.8752C31.681 17.8752 31.7812 17.8752 31.9315 17.8752C32.0818 17.8752 32.182 17.8752 32.2823 17.8752C32.3825 17.8752 32.4326 17.8752 32.5328 17.924C32.5829 17.924 32.633 17.9727 32.6831 17.9727C32.7332 18.0215 32.7332 18.0215 32.7332 18.0702V24.211H35.088V18.0702C35.088 18.0215 35.088 18.0215 35.1381 17.9727C35.1882 17.924 35.2384 17.924 35.2885 17.924C35.3887 17.924 35.4388 17.8752 35.539 17.8752C35.6392 17.8752 35.7394 17.8752 35.8897 17.8752C36.04 17.8752 36.1402 17.8752 36.2404 17.8752C36.3406 17.8752 36.3907 17.8752 36.4909 17.924C36.541 17.924 36.5911 17.9727 36.6412 17.9727C36.6913 18.0215 36.6913 18.0215 36.6913 18.0702L36.541 24.9908Z" fill="#6E8CC7"/>
<path d="M45.2089 24.8446C45.259 24.9421 45.259 25.0396 45.3091 25.1858C45.3091 25.2345 45.3091 25.332 45.259 25.3807C45.2089 25.4295 45.1087 25.4782 45.0085 25.4782C44.9083 25.4782 44.758 25.4782 44.5576 25.4782H44.0565C43.9563 25.4782 43.9062 25.4782 43.806 25.4295C43.7559 25.4295 43.7058 25.3807 43.6557 25.332C43.6056 25.2832 43.6056 25.2345 43.6056 25.1858L43.1046 23.6749H40.1986L39.6975 25.137C39.6975 25.1858 39.6474 25.2345 39.6474 25.2832C39.5973 25.332 39.5472 25.332 39.4971 25.3807C39.3969 25.4295 39.3468 25.4295 39.2466 25.4295C39.1464 25.4295 38.9961 25.4295 38.8458 25.4295C38.6955 25.4295 38.5452 25.4295 38.3949 25.4295C38.2947 25.4295 38.2445 25.3807 38.1944 25.332C38.1443 25.2832 38.1443 25.1858 38.1443 25.137C38.1443 25.0396 38.1944 24.8934 38.2445 24.7959L40.6495 18.0703C40.6495 18.0215 40.6996 17.9728 40.7497 17.924C40.7998 17.8753 40.8499 17.8266 40.9 17.8266C41.0002 17.7778 41.1004 17.7778 41.2006 17.7778H41.7017H42.2528C42.353 17.7778 42.4532 17.7778 42.6035 17.8266C42.6536 17.8266 42.7538 17.8753 42.7538 17.924C42.8039 17.9728 42.8039 18.0215 42.8541 18.119L45.2089 24.8446ZM41.6516 19.3374L40.5493 22.554H42.7538L41.6516 19.3374Z" fill="#6E8CC7"/>
<path d="M56.5824 18.509C56.5824 18.6064 56.5824 18.7039 56.5824 18.8014C56.5824 18.8501 56.5824 18.9476 56.5323 18.9963C56.5323 19.0451 56.4822 19.0938 56.4321 19.0938C56.3819 19.0938 56.3819 19.1425 56.3318 19.1425H53.7766V25.2346C53.7766 25.2833 53.7766 25.3321 53.7265 25.3321C53.6764 25.3808 53.6263 25.3808 53.5762 25.4295C53.476 25.4295 53.4259 25.4783 53.3256 25.4783C53.2254 25.4783 53.0751 25.4783 52.9248 25.4783C52.7745 25.4783 52.6242 25.4783 52.524 25.4783C52.4238 25.4783 52.3737 25.4783 52.2735 25.4295C52.2234 25.4295 52.1733 25.3808 52.1232 25.3321C52.0731 25.2833 52.0731 25.2833 52.0731 25.2346V18.3628C52.0731 18.2166 52.1232 18.1191 52.2234 17.9729C52.3236 17.8754 52.4238 17.8267 52.5741 17.8267H56.2817C56.3819 17.8267 56.4321 17.8754 56.4822 17.9729C56.5824 18.2166 56.5824 18.3628 56.5824 18.509Z" fill="#6E8CC7"/>
<path d="M64.7492 21.5794C64.7492 22.1643 64.6991 22.7004 64.4987 23.2852C64.3484 23.7726 64.0979 24.1625 63.7972 24.5524C63.4966 24.8935 63.0958 25.1859 62.6449 25.3321C62.1438 25.5271 61.5927 25.6246 61.0416 25.6246C60.4904 25.6246 59.9894 25.5758 59.4884 25.3809C59.0374 25.2347 58.6867 24.991 58.336 24.6498C58.0354 24.3087 57.7848 23.87 57.6846 23.4314C57.5343 22.8466 57.4341 22.2617 57.4842 21.7256C57.4842 21.1895 57.5343 20.6047 57.7347 20.0686C57.885 19.63 58.1356 19.1913 58.4362 18.8014C58.7368 18.4603 59.1376 18.2166 59.5886 18.0217C60.0896 17.8267 60.6407 17.7292 61.1919 17.7292C61.743 17.7292 62.244 17.778 62.7451 17.9729C63.196 18.1191 63.5467 18.3628 63.8974 18.6552C64.1981 18.9964 64.4486 19.3863 64.5989 19.8737C64.6991 20.4585 64.7492 20.9946 64.7492 21.5794ZM63.0958 21.6769C63.0958 21.3357 63.0457 20.9459 62.9956 20.6047C62.9455 20.3123 62.8453 20.0199 62.6449 19.7762C62.4946 19.5325 62.2941 19.3376 62.0436 19.2401C61.743 19.0939 61.3923 19.0451 61.0917 19.0451C60.7409 19.0451 60.4403 19.0939 60.1397 19.2401C59.8892 19.3863 59.6888 19.5812 59.4884 19.8249C59.338 20.0686 59.1877 20.361 59.1376 20.6534C59.0875 20.9946 59.0374 21.3357 59.0374 21.6769C59.0374 22.0668 59.0875 22.4079 59.1376 22.7978C59.1877 23.0903 59.2879 23.3827 59.4884 23.6264C59.6387 23.87 59.8391 24.065 60.0896 24.1625C60.3902 24.3087 60.7409 24.3574 61.0416 24.3574C61.3923 24.3574 61.6929 24.3087 61.9935 24.1625C62.244 24.0163 62.4444 23.8213 62.6449 23.5776C62.7952 23.3339 62.9455 23.0415 62.9956 22.7491C63.0457 22.3592 63.0958 22.0181 63.0958 21.6769Z" fill="#6E8CC7"/>
<path d="M72.0142 20.2147C72.0142 20.6046 71.9641 20.9945 71.8138 21.3356C71.6635 21.6768 71.4631 21.9205 71.2125 22.1641C70.9119 22.4078 70.6113 22.554 70.2606 22.6515C69.8096 22.7977 69.3587 22.8465 68.9078 22.8465H68.2564V25.2833C68.2564 25.332 68.2564 25.3808 68.2063 25.3808C68.1562 25.4295 68.1061 25.4295 68.056 25.4782C67.9558 25.4782 67.9057 25.527 67.8055 25.527C67.555 25.527 67.3045 25.527 67.054 25.527C66.9537 25.527 66.9036 25.4782 66.8034 25.4782C66.7533 25.4782 66.7032 25.4295 66.6531 25.3808C66.6531 25.332 66.603 25.332 66.603 25.2833V18.4602C66.603 18.314 66.6531 18.1678 66.7533 18.0703C66.8535 17.9728 67.0038 17.9241 67.1542 17.9241H69.008C69.2084 17.9241 69.3587 17.9241 69.509 17.9241C69.7094 17.9241 69.9098 17.9728 70.1103 18.0215C70.3608 18.0703 70.6113 18.1678 70.8117 18.2652C71.0622 18.3627 71.2626 18.5576 71.4129 18.7039C71.5633 18.8988 71.7136 19.0937 71.8138 19.3374C71.9641 19.5811 72.0142 19.8735 72.0142 20.2147ZM70.3608 20.3122C70.3608 20.0685 70.3107 19.8735 70.2105 19.6786C70.1103 19.5324 70.0101 19.3862 69.8597 19.2887C69.7094 19.1912 69.5591 19.1425 69.4088 19.1425C69.2585 19.1425 69.0581 19.0937 68.9078 19.0937H68.2564V21.6768H68.9579C69.1583 21.6768 69.4088 21.628 69.6092 21.5793C69.7595 21.5306 69.9098 21.4331 70.0101 21.2869C70.1103 21.1407 70.2105 20.9945 70.2606 20.8483C70.3107 20.6533 70.3608 20.5071 70.3608 20.3122Z" fill="#6E8CC7"/>
<path d="M80.8825 21.5794C80.8825 22.1643 80.8324 22.7004 80.632 23.2852C80.4816 23.7726 80.2311 24.1625 79.9305 24.5524C79.6299 24.8935 79.2291 25.1859 78.7781 25.3321C78.2771 25.5271 77.726 25.6246 77.1748 25.6246C76.6237 25.6246 76.1227 25.5758 75.5715 25.3809C75.1206 25.2347 74.7699 24.991 74.4191 24.6498C74.1185 24.3087 73.868 23.87 73.7177 23.4314C73.5674 22.8466 73.4672 22.2617 73.5173 21.7256C73.5173 21.1895 73.5674 20.6047 73.7678 20.0686C73.9181 19.63 74.1686 19.1913 74.5193 18.8014C74.82 18.4603 75.2208 18.2166 75.6717 18.0217C76.1728 17.8267 76.7239 17.7292 77.275 17.7292C77.8262 17.7292 78.3272 17.778 78.8282 17.9729C79.2792 18.1191 79.6299 18.3628 79.9806 18.6552C80.2812 18.9964 80.5317 19.3863 80.6821 19.8737C80.7823 20.4585 80.8825 20.9946 80.8825 21.5794ZM79.179 21.6769C79.179 21.3357 79.1289 20.9459 79.0787 20.6047C79.0286 20.3123 78.9284 20.0199 78.7781 19.7762C78.6278 19.5325 78.4274 19.3376 78.1769 19.2401C77.8763 19.0939 77.5255 19.0451 77.2249 19.0451C76.8742 19.0451 76.5736 19.0939 76.273 19.2401C76.0224 19.3863 75.822 19.5812 75.6216 19.8249C75.4713 20.0686 75.321 20.361 75.2709 20.6534C75.2208 20.9946 75.1707 21.3357 75.1707 21.6769C75.1707 22.0668 75.2208 22.4079 75.2709 22.7978C75.321 23.0903 75.4212 23.3827 75.5715 23.6264C75.7218 23.87 75.9222 24.065 76.1728 24.1625C76.4734 24.3087 76.8241 24.3574 77.1247 24.3574C77.4754 24.3574 77.7761 24.3087 78.0767 24.1625C78.3272 24.0163 78.5276 23.8213 78.728 23.5776C78.8783 23.3339 79.0286 23.0415 79.0787 22.7491C79.179 22.3592 79.2291 22.0181 79.179 21.6769Z" fill="#6E8CC7"/>
<path d="M89.6505 27.2326C89.6505 27.2814 89.6505 27.2814 89.6004 27.3301C89.5503 27.3789 89.5503 27.3789 89.5002 27.3789C89.4501 27.3789 89.3499 27.4276 89.2998 27.4276C89.1996 27.4276 89.0493 27.4276 88.9491 27.4276C88.8489 27.4276 88.7487 27.4276 88.5984 27.4276C88.5483 27.4276 88.4481 27.4276 88.398 27.3789C88.3479 27.3789 88.2978 27.3301 88.2978 27.3301C88.2978 27.2814 88.2476 27.2814 88.2476 27.2326V25.4294H83.087V27.2326C83.087 27.2814 83.087 27.2814 83.0369 27.3301C82.9868 27.3789 82.9868 27.3789 82.9367 27.3789C82.8866 27.3789 82.7864 27.4276 82.7363 27.4276C82.5359 27.4276 82.2854 27.4276 82.0849 27.4276C82.0348 27.4276 81.9346 27.4276 81.8845 27.3789C81.8344 27.3789 81.7843 27.3301 81.7843 27.3301C81.7843 27.2814 81.7342 27.2814 81.7342 27.2326V24.5034C81.7342 24.4059 81.7342 24.3085 81.7843 24.2597C81.8344 24.211 81.9346 24.1622 81.9847 24.1622H82.3355C82.4357 24.016 82.5359 23.8698 82.6361 23.7724C82.7363 23.6261 82.8365 23.4312 82.8866 23.285C82.9868 23.0413 83.0369 22.8464 83.1371 22.6027C83.2373 22.359 83.2874 22.0178 83.3876 21.628C83.4878 21.2381 83.5379 20.7994 83.6381 20.2633C83.7384 19.7272 83.7885 19.0937 83.8887 18.4113C83.8887 18.2651 83.9388 18.1189 84.039 18.0215C84.1392 17.924 84.2394 17.8752 84.3396 17.8752H88.2978C88.398 17.8752 88.5483 17.924 88.6485 18.0215C88.7487 18.1189 88.7988 18.2651 88.7487 18.4113V24.2597H89.4C89.5002 24.2597 89.5503 24.2597 89.6505 24.3572C89.7006 24.4059 89.7006 24.5034 89.7006 24.6009L89.6505 27.2326ZM87.1454 19.1424H85.3417C85.2916 19.7272 85.1913 20.2633 85.1412 20.702C85.0911 21.1406 84.9909 21.5305 84.9408 21.8716C84.8907 22.2128 84.7905 22.5052 84.7404 22.7489C84.6903 22.9438 84.5901 23.1875 84.54 23.3825C84.4899 23.5287 84.3897 23.6749 84.2895 23.8698C84.2394 23.9673 84.1392 24.1135 84.039 24.211H87.1955L87.1454 19.1424Z" fill="#6E8CC7"/>
<path d="M97.7673 24.8446C97.8174 24.9421 97.8174 25.0396 97.8675 25.1858C97.8675 25.2345 97.8675 25.332 97.8174 25.3807C97.7673 25.4295 97.6671 25.4782 97.5669 25.4782C97.4666 25.4782 97.3163 25.4782 97.1159 25.4782H96.6149C96.5147 25.4782 96.4646 25.4782 96.3644 25.4295C96.3143 25.4295 96.2642 25.3807 96.2141 25.332C96.164 25.2832 96.164 25.2345 96.164 25.1858L95.6629 23.6749H92.7569L92.2559 25.137C92.2559 25.1858 92.2058 25.2345 92.2058 25.2832C92.1557 25.332 92.1056 25.332 92.0555 25.3807C91.9553 25.4295 91.9052 25.4295 91.805 25.4295C91.7048 25.4295 91.5545 25.4295 91.4041 25.4295C91.2538 25.4295 91.1035 25.4295 90.9532 25.4295C90.853 25.4295 90.8029 25.3807 90.7528 25.332C90.7027 25.2832 90.7027 25.1858 90.7027 25.137C90.7027 25.0396 90.7528 24.8934 90.8029 24.7959L93.2079 18.0703C93.2079 18.0215 93.258 17.9728 93.3081 17.924C93.3582 17.8753 93.4083 17.8266 93.4584 17.8266C93.5586 17.7778 93.6588 17.7778 93.759 17.7778H94.26H94.8112C94.9114 17.7778 95.0116 17.7778 95.1118 17.8266C95.1619 17.8266 95.2621 17.8753 95.2621 17.924C95.3122 17.9728 95.3122 18.0215 95.3623 18.119L97.7673 24.8446ZM94.1598 19.3374L93.0576 22.554H95.2621L94.1598 19.3374Z" fill="#6E8CC7"/>
</g>
<defs>
<clipPath id="clip0_0:137">
<rect width="97" height="27" fill="white" transform="translate(0.817383 0.476562)"/>
</clipPath>
</defs>
</svg>
