<svg width="97" height="31" viewBox="0 0 97 31" fill="none" xmlns="http://www.w3.org/2000/svg">
<g clip-path="url(#clip0_0:115)">
<path d="M47.0013 15.1653C46.9125 17.4764 45.8351 18.932 45.0131 18.932C44.1912 18.932 44.1246 17.7875 44.9576 15.2209L47.4901 7.2431H42.5918L41.8254 8.33199H41.792C41.6254 7.42088 40.7924 6.90977 39.3484 6.90977C34.6501 6.90977 30.3516 12.2098 30.3516 17.0875C30.3516 17.1875 30.3516 17.2875 30.3516 17.3875C29.8073 17.8653 29.2186 18.3098 28.6077 18.6987C28.841 17.0875 29.1409 15.9764 29.9184 13.4098C30.0295 13.0653 31.8511 7.26533 31.8511 7.26533H26.975L26.2308 8.35422H26.1752C26.0086 7.29866 24.8979 6.93199 23.9205 6.93199C19.6775 6.93199 15.8455 11.1542 14.9347 15.2875C13.9128 17.8764 11.9246 18.732 10.5362 18.732C8.62578 18.732 7.40399 17.7098 7.40399 15.5653C7.40399 12.9764 8.91457 10.8987 11.0138 10.8431C13.4908 11.6987 14.8903 11.0987 14.8903 10.1542C14.8903 9.2431 13.2908 8.8431 10.5362 9.35422C10.3918 8.83199 10.3252 8.29866 10.3363 7.75422C10.3363 4.76533 11.647 1.96533 14.035 1.96533C14.6903 1.96533 15.0347 2.10977 15.3679 2.45422C12.5466 5.19866 14.2016 7.47644 16.1343 7.47644C17.4449 7.47644 18.6667 6.62088 18.6667 4.76533C18.6667 2.45422 16.3898 0.487549 12.691 0.487549C8.04821 0.487549 4.89375 3.03199 4.89375 6.33199C4.89375 8.0431 6.03779 9.35422 7.28181 9.89866C3.86077 10.4098 0.817383 12.4098 0.817383 16.1431C0.817383 19.532 3.00551 21.4431 7.04855 21.4431C10.8583 21.4431 13.4241 19.9764 14.7459 17.4542C14.8681 20.2209 16.4009 21.2987 18.7001 21.2987C20.7216 21.2987 22.5987 20.3875 23.454 17.6542L23.6206 17.6875L23.0763 20.6209C22.9208 20.6653 22.7653 20.7098 22.5987 20.7653C15.2568 23.0209 12.7466 24.7542 12.7466 27.1209C12.7466 28.8542 14.2794 30.032 16.8785 30.032C22.8097 30.032 26.6529 27.0098 28.3189 20.132C29.0965 19.7098 29.8406 19.2209 30.5182 18.6542C30.9736 20.5209 32.3176 21.4542 34.2724 21.4542C36.7494 21.4542 38.6265 19.632 39.2263 17.4653L39.4484 17.4987C38.4821 20.2098 39.7594 21.4653 42.2697 21.4653C45.7129 21.4653 47.9344 18.4987 48.0232 15.1987L47.0013 15.1653ZM19.1221 28.6764C18.1225 28.6764 17.7004 28.132 17.7004 27.0764C17.7004 25.7098 18.6112 23.5431 22.5654 21.9987C22.6542 21.9653 22.7431 21.932 22.832 21.8987C22.0322 26.0098 21.1992 28.6764 19.1221 28.6764ZM25.1645 9.78755L24.4203 12.0653C22.9097 16.6764 22.1433 18.6987 21.3769 18.6987C21.0104 18.6987 20.7771 18.4098 20.7771 16.8431C20.7771 13.7098 22.6876 8.37644 24.3314 8.37644C24.9646 8.38755 25.22 8.75422 25.1645 9.78755ZM40.7146 9.78755L39.9705 12.0653C38.4932 16.6542 37.749 18.8542 36.9826 18.8542C36.5827 18.8542 36.3828 18.5653 36.3828 16.9987C36.3828 13.6098 38.3488 8.38755 40.026 8.38755C40.4814 8.38755 40.7702 8.73199 40.7146 9.78755Z" fill="#262424"/>
<path d="M64.1065 13.8766H61.6851V15.521H64.5397V16.5433H60.4189V10.3877H64.5286V11.4099H61.6851V12.8766H64.1176V13.8766H64.1065Z" fill="#262424"/>
<path d="M66.8278 16.5433V10.3877H68.716C69.1047 10.3877 69.4935 10.4544 69.8489 10.5988C70.1821 10.7321 70.482 10.9433 70.7375 11.1988C70.993 11.4655 71.1818 11.7766 71.3151 12.121C71.4595 12.5099 71.5261 12.9099 71.5261 13.321V13.5988C71.5372 14.0099 71.4595 14.4099 71.3262 14.7988C71.204 15.1432 71.0041 15.4544 70.7486 15.721C70.4931 15.9766 70.1933 16.1877 69.86 16.321C69.4935 16.4655 69.1047 16.5321 68.716 16.5321L66.8278 16.5433ZM68.094 11.421V15.521H68.7049C69.2047 15.521 69.5824 15.3544 69.8489 15.021C70.1155 14.6877 70.2377 14.221 70.2377 13.5988V13.3099C70.2377 12.6877 70.1044 12.2099 69.8489 11.8877C69.5935 11.5655 69.2158 11.4099 68.716 11.4099L68.094 11.421Z" fill="#262424"/>
<path d="M77.1242 15.2765H74.9028L74.4807 16.5431H73.1367L75.4248 10.3987H76.6022L78.9014 16.5431H77.5574L77.1242 15.2765ZM75.2471 14.2431H76.791L76.0135 11.9431L75.2471 14.2431Z" fill="#262424"/>
<path d="M81.0117 15.9432C81.0117 15.8543 81.0229 15.7654 81.0562 15.6876C81.0895 15.6098 81.1339 15.5432 81.2006 15.4765C81.2672 15.4209 81.345 15.3654 81.4227 15.3432C81.5116 15.3098 81.6115 15.2876 81.7004 15.2876C81.8004 15.2876 81.9003 15.2987 81.9892 15.3432C82.0669 15.3765 82.1447 15.4209 82.2113 15.4765C82.2669 15.532 82.3224 15.6098 82.3557 15.6876C82.3891 15.7654 82.4002 15.8543 82.4002 15.9432C82.4002 16.032 82.3891 16.1209 82.3557 16.1987C82.3224 16.2765 82.278 16.3432 82.2113 16.3987C82.1447 16.4543 82.0669 16.5098 81.9892 16.532C81.9003 16.5654 81.8004 16.5765 81.7004 16.5765C81.6004 16.5765 81.5116 16.5654 81.4227 16.532C81.345 16.4987 81.2672 16.4543 81.2006 16.3987C81.145 16.3432 81.0895 16.2765 81.0562 16.1987C81.0229 16.1209 81.0117 16.032 81.0117 15.9432Z" fill="#262424"/>
<path d="M87.3762 14.2877H86.3654V16.5433H85.0992V10.3877H87.3873C87.7094 10.3877 88.0315 10.421 88.3425 10.5099C88.598 10.5766 88.8423 10.6988 89.0534 10.8655C89.2422 11.021 89.3977 11.221 89.4977 11.4433C89.6087 11.6988 89.6643 11.9655 89.6532 12.2433C89.6532 12.4433 89.6309 12.6544 89.5754 12.8433C89.4866 13.1766 89.2866 13.4766 89.0089 13.6877C88.8645 13.7988 88.7202 13.8877 88.5535 13.9544L89.8864 16.4655V16.521H88.5202L87.3762 14.2877ZM86.3654 13.2655H87.3873C87.5317 13.2655 87.6872 13.2433 87.8205 13.1988C87.9315 13.1655 88.0426 13.0988 88.1315 13.0099C88.2092 12.9321 88.2759 12.8321 88.3203 12.721C88.3647 12.5988 88.3869 12.4766 88.3869 12.3433C88.398 12.0877 88.3092 11.8433 88.1426 11.6544C87.976 11.4877 87.7205 11.4099 87.3873 11.4099H86.3654V13.2655Z" fill="#262424"/>
<path d="M96.8174 10.3877V14.4432C96.8285 14.7655 96.7619 15.0877 96.6397 15.3877C96.5286 15.6432 96.362 15.8766 96.151 16.0655C95.9289 16.2544 95.6845 16.3988 95.4068 16.4766C94.7959 16.6655 94.1295 16.6655 93.5186 16.4766C93.2409 16.3877 92.9855 16.2544 92.7744 16.0655C92.5634 15.8766 92.3968 15.6432 92.2857 15.3877C92.1635 15.0877 92.108 14.7655 92.108 14.4432V10.3877H93.3742V14.4432C93.3742 14.8432 93.4742 15.1432 93.663 15.321C93.8851 15.5099 94.1739 15.6099 94.4627 15.5988C94.807 15.5988 95.0736 15.5099 95.2624 15.321C95.4512 15.1321 95.5512 14.8432 95.5512 14.4432V10.3877H96.8174Z" fill="#262424"/>
<path d="M54.3766 0.476562H53.2659V30.4766H54.3766V0.476562Z" fill="#262424"/>
</g>
<defs>
<clipPath id="clip0_0:115">
<rect width="96" height="30" fill="white" transform="translate(0.817383 0.476562)"/>
</clipPath>
</defs>
</svg>
