<svg width="97" height="33" viewBox="0 0 97 33" fill="none" xmlns="http://www.w3.org/2000/svg">
<g clip-path="url(#clip0_0:209)">
<path d="M0.817383 10.1563V0.476562H7.62942V10.1563H0.817383ZM6.65354 9.18831V1.44453H1.79326V9.18831H6.65354Z" fill="#FFD800"/>
<path d="M11.3416 5.03166H10.9206C10.3466 4.23451 9.79168 3.43735 9.21763 2.5453V5.03166H8.73926V1.55835H9.17936C9.75341 2.3555 10.3083 3.13368 10.8632 4.02573V1.55835H11.3416V5.03166Z" fill="#353E61"/>
<path d="M12.7193 1.55835L11.5138 5.03166H12.0304L12.3366 4.08267H13.389L13.6569 5.03166H14.3266L13.2168 1.55835H12.7193ZM12.4897 3.64613C12.6236 3.19062 12.7767 2.77306 12.8915 2.24162C13.0255 2.77306 13.1594 3.19062 13.2933 3.64613H12.4897Z" fill="#353E61"/>
<path d="M14.8816 5.03166V2.03285H13.9631V1.55835H16.3932V2.03285H15.4747V5.03166H14.8816Z" fill="#353E61"/>
<path d="M17.1777 1.55835H16.5846V5.03166H17.1777V1.55835Z" fill="#353E61"/>
<path d="M19.0339 5.08865C19.9523 5.08865 20.5072 4.2915 20.5072 3.24761C20.5072 2.27964 19.8758 1.50146 19.0339 1.50146C18.1919 1.50146 17.5605 2.27964 17.5605 3.24761C17.5413 4.27252 18.1154 5.08865 19.0339 5.08865ZM19.0339 4.59518C18.4024 4.59518 18.1919 3.9119 18.1919 3.24761C18.1919 2.58332 18.4407 1.99494 19.0339 1.99494C19.627 1.99494 19.8758 2.6023 19.8758 3.24761C19.8758 3.89292 19.6462 4.5762 19.0339 4.59518Z" fill="#353E61"/>
<path d="M23.4731 5.03166H23.033C22.459 4.23451 21.9041 3.43735 21.3492 2.5453V5.03166H20.8708V1.55835H21.3109C21.8849 2.3555 22.4399 3.13368 22.9948 4.02573H23.0139V1.55835H23.4923L23.4731 5.03166Z" fill="#353E61"/>
<path d="M24.8509 1.55835L23.6454 5.03166H24.162L24.4682 4.08267H25.5206L25.7885 5.03166H26.4582L25.3484 1.55835H24.8509ZM24.6212 3.64613C24.7552 3.19062 24.9083 2.77306 25.0231 2.24162H25.0422C25.1761 2.77306 25.3101 3.19062 25.444 3.64613H24.6212Z" fill="#353E61"/>
<path d="M26.6304 1.55835H27.2236V4.55716H28.3909V5.03166H26.6304V1.55835Z" fill="#353E61"/>
<path d="M11.2459 7.87881V9.3023C10.9398 9.43516 10.5954 9.51108 10.2509 9.51108C9.21763 9.51108 8.56705 8.71393 8.56705 7.70799C8.56705 6.759 9.21763 5.94287 10.2509 5.94287C10.5571 5.94287 10.8441 6.03777 11.0929 6.20859L10.9015 6.62615C10.7102 6.51227 10.4805 6.43635 10.2701 6.43635C9.6386 6.43635 9.1985 6.92982 9.1985 7.72698C9.1985 8.54311 9.69601 9.03658 10.2127 9.03658C10.3657 9.03658 10.4997 9.0176 10.6336 8.96066V7.87881H11.2459Z" fill="#353E61"/>
<path d="M13.389 6.47425H12.394V7.42324H13.3699V7.87876H12.394V8.99857H13.5612V9.45409H11.8008V5.99976H13.389V6.47425Z" fill="#353E61"/>
<path d="M15.226 9.53006C16.1445 9.53006 16.6994 8.73291 16.6994 7.68902C16.6994 6.72104 16.068 5.94287 15.226 5.94287C14.3841 5.94287 13.7526 6.70207 13.7526 7.68902C13.7526 8.71393 14.3267 9.53006 15.226 9.53006ZM15.226 9.03659C14.5946 9.03659 14.3841 8.35331 14.3841 7.68902C14.3841 7.02472 14.6328 6.43635 15.226 6.43635C15.8192 6.43635 16.068 7.0437 16.068 7.68902C16.068 8.33433 15.8575 9.01761 15.226 9.03659Z" fill="#353E61"/>
<path d="M19.5887 7.87881V9.3023C19.2826 9.43516 18.9382 9.51108 18.5937 9.51108C17.5604 9.51108 16.9099 8.71393 16.9099 7.70799C16.9099 6.759 17.5604 5.94287 18.5937 5.94287C18.8999 5.94287 19.1869 6.03777 19.4357 6.20859L19.2443 6.62615C19.053 6.51227 18.8233 6.43635 18.6129 6.43635C17.9814 6.43635 17.5413 6.92982 17.5413 7.72698C17.5413 8.54311 18.0388 9.03658 18.5555 9.03658C18.7085 9.03658 18.8425 9.0176 18.9764 8.96066V7.87881H19.5887Z" fill="#353E61"/>
<path d="M22.2485 9.45409L21.5405 8.0306C21.9232 7.82182 22.1528 7.42324 22.1528 7.00569C22.1528 6.34139 21.7319 5.99976 21.0622 5.99976H20.1437V9.45409H20.7177V8.14448H20.9856L21.5405 9.45409H22.2485ZM20.7177 6.47425H20.9856C21.2726 6.45527 21.5023 6.64507 21.5405 6.92977C21.5405 6.96773 21.5405 7.00569 21.5405 7.04365C21.5405 7.51814 21.2535 7.70794 20.9665 7.72692L20.7177 7.7459V6.47425Z" fill="#353E61"/>
<path d="M23.454 5.99976L22.2485 9.45409H22.7651L23.0713 8.50509H24.1237L24.3916 9.45409H25.0613L23.9515 5.99976H23.454ZM23.2244 8.08754C23.3583 7.63202 23.5114 7.21447 23.6262 6.68303C23.7601 7.21447 23.8941 7.63202 24.028 8.08754H23.2244Z" fill="#353E61"/>
<path d="M26.0947 7.70794L25.8459 7.72692V6.47425H26.1138C26.4008 6.45527 26.6304 6.64507 26.6687 6.92977C26.6687 6.96773 26.6687 7.00569 26.6687 7.04365C26.6687 7.49916 26.3817 7.68896 26.0947 7.70794ZM26.1712 5.99976H25.2336V9.45409H25.8268V8.14448H26.0947C26.7261 8.14448 27.2427 7.63202 27.2427 7.00569V6.98671C27.2619 6.32241 26.8409 5.99976 26.1712 5.99976Z" fill="#353E61"/>
<path d="M30.0364 9.45409H29.4432V7.80284H28.1994V9.45409H27.6063V5.99976H28.1994V7.32834H29.4432V6.01874H30.0364V9.45409Z" fill="#353E61"/>
<path d="M31.2037 5.99976H30.6105V9.45409H31.2037V5.99976Z" fill="#353E61"/>
<path d="M33.9017 6.62603C33.7103 6.51215 33.4998 6.45521 33.2893 6.43623C32.677 6.43623 32.2369 6.9297 32.2369 7.72686C32.2369 8.54299 32.7344 9.03647 33.3085 9.03647C33.519 9.03647 33.7294 8.97953 33.9017 8.86565L34.0739 9.30218C33.8443 9.45402 33.5572 9.52994 33.2893 9.54892C32.2561 9.54892 31.6055 8.75177 31.6055 7.74584C31.6055 6.79685 32.2561 5.98071 33.2893 5.98071C33.5764 5.98071 33.8634 6.07561 34.093 6.24643L33.9017 6.62603Z" fill="#353E61"/>
<path d="M73.5493 32.4767V32.3818C73.932 31.7365 74.0277 30.6357 74.0277 28.6807V16.6475C74.0277 14.6926 73.9129 13.5918 73.5493 12.9465V12.8516H83.4038V17.0461H83.3081C82.4662 16.6286 81.2607 16.4767 79.5003 16.4767H78.6392V20.5764H79.328C81.0885 20.5764 82.294 20.4625 83.1359 20.1588H83.2316V24.5621H83.1359C82.294 24.2584 81.0885 24.1446 79.328 24.1446H78.6392V28.8516H79.7873C81.5477 28.8516 82.7532 28.6997 83.5951 28.2822H83.6717V32.4767H73.5493ZM89.8331 16.0971C89.6801 16.0971 89.5461 16.0971 89.393 16.1161V21.5253H89.6609C90.8664 21.5253 91.4213 20.3296 91.4213 18.3937C91.4213 16.6665 90.809 16.0971 89.8331 16.0971ZM92.1676 32.4767C91.5553 31.5657 91.3831 30.7116 91.1152 27.7507C90.9047 25.2264 90.3881 24.9607 89.5078 24.9607H89.393V28.6807C89.393 30.6357 89.5078 31.7365 89.8714 32.3818V32.4767H84.4754V32.3818C84.8581 31.7365 84.9537 30.6357 84.9537 28.6807V16.6475C84.9537 14.6926 84.8389 13.5918 84.4754 12.9465V12.8516H89.2208C92.0145 12.8516 93.5453 13.1932 94.7317 14.3699C95.4971 15.1291 96.0329 16.3059 96.0329 18.1469C96.0329 20.4435 94.9996 21.9429 93.6601 23.1766C95.1718 23.8788 95.7267 24.8278 95.8798 27.9595C96.0329 31.0912 96.1285 31.5847 96.7983 32.3628V32.4767H92.1676ZM63.1973 32.4767V32.3818C63.58 31.7365 63.6757 30.6357 63.6757 28.6807V16.6475C63.6757 14.6926 63.5609 13.5918 63.1973 12.9465V12.8516H68.823V12.9465C68.4403 13.5918 68.3446 14.6926 68.3446 16.6475V28.6807H69.0335C70.7939 28.6807 71.9994 28.5289 72.8413 28.1114H72.937V32.4767H63.1973ZM52.2521 32.4767V32.3818C52.6348 31.7365 52.7305 30.6357 52.7305 28.6807V16.6475C52.7305 14.6926 52.6157 13.5918 52.2521 12.9465V12.8516H62.1066V17.0461H62.0109C61.169 16.6286 59.9635 16.4767 58.2031 16.4767H57.342V20.5764H58.0309C59.7913 20.5764 60.9968 20.4625 61.8387 20.1588H61.9344V24.5621H61.8387C60.9968 24.2584 59.7913 24.1446 58.0309 24.1446H57.342V28.8516H58.4901C60.2505 28.8516 61.456 28.6997 62.298 28.2822H62.3936V32.4767H52.2521ZM12.3749 17.16C11.6286 16.7234 10.9206 16.4767 9.14108 16.4767H8.96887V28.6618C8.96887 30.6167 9.08368 31.7175 9.44724 32.3628V32.4577H3.82157V32.3628C4.20427 31.7175 4.29994 30.6167 4.29994 28.6618V16.4957H4.12773C2.34818 16.4957 1.64019 16.7424 0.893923 17.179H0.817383V12.8516H12.4706V17.16H12.3749ZM18.4407 16.0971C18.2876 16.0971 18.1536 16.0971 18.0006 16.1161V21.5253H18.2684C19.474 21.5253 20.0289 20.3296 20.0289 18.3937C20.0289 16.6665 19.4165 16.0971 18.4407 16.0971ZM20.7751 32.4767C20.1628 31.5657 19.9906 30.7116 19.7227 27.7507C19.4931 25.2264 18.9956 24.9607 18.1154 24.9607H18.0006V28.6807C18.0006 30.6357 18.1154 31.7365 18.4789 32.3818V32.4767H13.102V32.3818C13.4847 31.7365 13.5804 30.6357 13.5804 28.6807V16.6475C13.5804 14.6926 13.4656 13.5918 13.102 12.9465V12.8516H17.8475C20.6412 12.8516 22.172 13.1932 23.3583 14.3699C24.1237 15.1291 24.6595 16.3059 24.6595 18.1469C24.6595 20.4435 23.6262 21.9429 22.2868 23.1766C23.7984 23.8788 24.3534 24.8278 24.5064 27.9595C24.6595 31.0912 24.7552 31.5847 25.4249 32.3628V32.4767H20.7751ZM51.0466 16.6475L47.9659 32.4767H42.0149L38.7428 16.6475C38.341 14.6926 38.1497 13.5918 37.6521 12.9465V12.8516H43.8136V12.9465C43.5457 13.5918 43.4118 14.6926 43.7562 16.6475L45.5166 27.4281L47.1622 16.6475C47.4684 14.6926 47.3536 13.5918 47.1048 12.9465V12.8516H52.1756V12.9465C51.6207 13.5918 51.4102 14.6736 51.0466 16.6475ZM31.8351 17.3688C31.5672 18.8682 31.0506 20.9749 30.4957 23.4423H32.9832L31.8351 17.3688ZM34.0356 32.4767V32.3818C34.2844 31.7365 34.3418 30.7306 33.9591 28.6807L33.6147 26.8587H29.7686C29.6346 27.4471 29.5198 28.0544 29.4241 28.6807C29.0797 30.6357 29.118 31.7365 29.3667 32.3818V32.4767H25.0422C25.157 31.3189 25.5397 29.0034 27.3193 22.3794C28.6779 17.3877 28.9075 14.6357 28.7544 12.8516H35.6047C35.6621 14.0473 36.1979 17.2928 37.1164 21.1837L38.8959 28.6807C39.3552 30.6357 39.6039 31.7365 40.1206 32.3818V32.4767H34.0356Z" fill="#353E61"/>
</g>
<defs>
<clipPath id="clip0_0:209">
<rect width="96" height="32" fill="white" transform="translate(0.817383 0.476562)"/>
</clipPath>
</defs>
</svg>
