<svg width="89" height="67" viewBox="0 0 89 67" fill="none" xmlns="http://www.w3.org/2000/svg">
<g clip-path="url(#clip0_0:96)">
<path d="M88.8172 0.743164H0.117188V66.3432H88.8172V0.743164Z" fill="#F8104D"/>
<path d="M25.0172 34.0432L17.7172 29.7432V38.2432L25.0172 34.0432Z" fill="white"/>
<path d="M25.0172 44.4432L17.7172 40.2432V48.6432L25.0172 44.4432Z" fill="white"/>
<path d="M18.2172 39.2432L25.4172 35.0432V43.4432L18.2172 39.2432Z" fill="white"/>
<path d="M70.8172 34.0432L63.5172 29.7432V38.2432L70.8172 34.0432Z" fill="white"/>
<path d="M70.8172 44.4432L63.5172 40.2432V48.6432L70.8172 44.4432Z" fill="white"/>
<path d="M63.9172 39.2432L71.2172 35.0432V43.4432L63.9172 39.2432Z" fill="white"/>
<path d="M49.3172 47.3432L53.5172 40.0432H45.1172L49.3172 47.3432Z" fill="white"/>
<path d="M38.8172 47.3432L43.0172 40.0432H34.6172L38.8172 47.3432Z" fill="white"/>
<path d="M44.1172 40.4431L48.2172 47.7431H39.9172L44.1172 40.4431Z" fill="white"/>
<path d="M54.5172 38.5432L58.7172 31.2432H50.3172L54.5172 38.5432Z" fill="white"/>
<path d="M49.2172 31.6431L53.4172 38.9431H45.0172L49.2172 31.6431Z" fill="white"/>
<path d="M33.6172 38.5432L29.4172 31.2432H37.8172L33.6172 38.5432Z" fill="white"/>
<path d="M38.9172 31.6431L34.7172 38.9431H43.1172L38.9172 31.6431Z" fill="white"/>
<path d="M25.0172 22.5433L17.7172 18.3433V26.7433L25.0172 22.6433V22.5433Z" fill="white"/>
<path d="M70.7172 22.5433L63.5172 18.3433V26.7433L70.7172 22.6433V22.5433Z" fill="white"/>
</g>
<defs>
<clipPath id="clip0_0:96">
<rect width="88.7" height="65.6" fill="white" transform="translate(0.117188 0.743164)"/>
</clipPath>
</defs>
</svg>
