<svg width="499" height="248" viewBox="0 0 499 248" fill="none" xmlns="http://www.w3.org/2000/svg">
<path opacity="0.502" d="M201.249 39.1274C154.498 51.4508 126.589 99.34 138.913 146.091C151.236 192.842 199.125 220.75 245.876 208.427C292.627 196.104 320.536 148.214 308.212 101.464C295.889 54.7128 248 26.804 201.249 39.1274Z" fill="#FDCB00"/>
<path opacity="0.2" d="M61.8984 61.8985C27.7128 96.0841 27.7128 151.51 61.8984 185.695C96.084 219.881 151.51 219.881 185.695 185.696C219.881 151.51 219.881 96.0841 185.695 61.8985C151.51 27.7129 96.084 27.7129 61.8984 61.8985Z" fill="#FDCB00"/>
<path opacity="0.502" d="M268.703 40.1672C222.493 54.3907 196.564 103.381 210.787 149.59C225.011 195.8 274.001 221.729 320.21 207.506C366.42 193.282 392.349 144.292 378.126 98.0827C363.902 51.8734 314.912 25.9437 268.703 40.1672Z" fill="#EE7D1F"/>
<path d="M312.314 61.9151C278.128 96.1007 278.128 151.526 312.314 185.712C346.499 219.898 401.925 219.898 436.111 185.712C470.296 151.527 470.296 96.1007 436.111 61.9151C401.925 27.7295 346.499 27.7295 312.314 61.9151Z" fill="#A71235"/>
</svg>
