<svg width="16" height="12" viewBox="0 0 16 12" fill="none" xmlns="http://www.w3.org/2000/svg">
<g clip-path="url(#clip0_0:94)">
<path d="M15.8616 3.18292C15.7735 2.15443 15.1379 0.855123 13.8321 0.806437C10.1884 0.569092 5.87139 0.505192 2.16165 0.806437C1.01003 0.934238 0.223404 2.28832 0.135302 3.31985C-0.047196 5.48334 -0.047196 6.71571 0.135302 8.87919C0.223404 9.90769 0.991152 11.2739 2.1648 11.417C5.91859 11.6543 10.2136 11.6878 13.8352 11.417C14.9711 11.2253 15.7766 9.91073 15.8647 8.87919C16.0441 6.71266 16.0441 5.34641 15.8616 3.18292ZM5.99725 8.84268V3.29551L10.9971 6.07062L5.99725 8.84268Z" fill="white"/>
</g>
<defs>
<clipPath id="clip0_0:94">
<rect width="16" height="11" fill="white" transform="matrix(1 0 0 -1 0 11.6055)"/>
</clipPath>
</defs>
</svg>
