<svg width="16" height="11" viewBox="0 0 16 11" fill="none" xmlns="http://www.w3.org/2000/svg">
<g clip-path="url(#clip0_0:73)">
<path d="M13.7661 6.96454C14.297 7.53945 14.8594 8.07371 15.3325 8.7067C15.5427 8.98544 15.7425 9.2758 15.8949 9.601C16.1104 10.0656 15.9159 10.5708 15.5427 10.5998H13.2142C12.615 10.6521 12.1314 10.385 11.7319 9.93202C11.4113 9.56616 11.1117 9.18289 10.8016 8.80542C10.6754 8.65443 10.5388 8.50925 10.3811 8.39311C10.0605 8.16663 9.78713 8.23631 9.60316 8.60217C9.41919 8.97383 9.37714 9.38614 9.35612 9.80426C9.32983 10.4082 9.16689 10.5708 8.61499 10.5998C7.43759 10.6637 6.31801 10.4663 5.28253 9.81006C4.36794 9.22935 3.65835 8.41634 3.03811 7.48719C1.82917 5.68115 0.909329 3.7009 0.0788426 1.66838C-0.105126 1.20961 0.0315364 0.965707 0.48883 0.954092C1.25099 0.936671 2.00788 0.936671 2.77004 0.954092C3.08016 0.9599 3.28515 1.15734 3.40079 1.47674C3.81078 2.59172 4.31538 3.66024 4.94613 4.64166C5.11433 4.90298 5.28778 5.16431 5.52957 5.35014C5.79764 5.55339 6.00789 5.48951 6.13404 5.15269C6.21288 4.94363 6.24968 4.71715 6.2707 4.49067C6.32852 3.71251 6.33903 2.94015 6.23391 2.16199C6.17083 1.67999 5.92379 1.3664 5.48752 1.27349C5.26676 1.22703 5.29829 1.13412 5.40342 0.994743C5.59264 0.750841 5.7661 0.599854 6.11827 0.599854H8.75165C9.16689 0.692769 9.25625 0.89602 9.31407 1.35479V4.5894C9.30881 4.76942 9.39291 5.29787 9.68726 5.41402C9.91853 5.49532 10.0762 5.29207 10.2129 5.12947C10.8436 4.39195 11.2957 3.51507 11.6951 2.60914C11.8739 2.20845 12.0263 1.79614 12.1735 1.38382C12.2838 1.07604 12.4573 0.925056 12.7674 0.930864H15.3009C15.3745 0.930864 15.4534 0.930864 15.5269 0.948285C15.9527 1.02959 16.0736 1.23284 15.9369 1.69161C15.7267 2.41751 15.3272 3.01565 14.9277 3.6254C14.5072 4.27 14.0552 4.89718 13.6347 5.54758C13.2615 6.15153 13.2878 6.4477 13.7661 6.96454Z" fill="white"/>
</g>
<defs>
<clipPath id="clip0_0:73">
<rect width="16" height="10" fill="white" transform="matrix(1 0 0 -1 0 10.6055)"/>
</clipPath>
</defs>
</svg>
