<svg width="14" height="16" viewBox="0 0 14 16" fill="none" xmlns="http://www.w3.org/2000/svg">
<g clip-path="url(#clip0_0:88)">
<path d="M7 5.12866C5.46875 5.12866 4.22188 6.4646 4.22188 8.10522C4.22188 9.74585 5.46875 11.0818 7 11.0818C8.53125 11.0818 9.77813 9.74585 9.77813 8.10522C9.77813 6.4646 8.53125 5.12866 7 5.12866Z" fill="white"/>
<path d="M11.0906 0.605469H2.90937C1.30156 0.605469 0 2 0 3.72266V12.4883C0 14.2086 1.30156 15.6055 2.90937 15.6055H11.0906C12.6962 15.6055 14 14.2109 14 12.4883V3.72266C14 2 12.6984 0.605469 11.0906 0.605469ZM10.9659 9.69453C10.5656 10.9414 9.64687 11.9258 8.48312 12.3547C5.02906 13.632 1.84187 10.2148 3.03406 6.51641C3.43437 5.26953 4.35312 4.28516 5.51687 3.85625C8.97094 2.57891 12.1581 5.99375 10.9659 9.69453ZM11.375 4.28516C10.8566 4.28516 10.4344 3.83281 10.4344 3.27734C10.4344 2.72187 10.8566 2.26953 11.375 2.26953C11.8934 2.26953 12.3156 2.72187 12.3156 3.27734C12.3156 3.83281 11.8934 4.28516 11.375 4.28516Z" fill="white"/>
</g>
<defs>
<clipPath id="clip0_0:88">
<rect width="14" height="15" fill="white" transform="translate(0 0.605469)"/>
</clipPath>
</defs>
</svg>
