<svg width="499" height="213" viewBox="0 0 499 213" fill="none" xmlns="http://www.w3.org/2000/svg">
<path opacity="0.702" fill-rule="evenodd" clip-rule="evenodd" d="M473.372 182H242.047C200.454 182 166.71 148.196 166.71 106.53C166.649 64.8044 200.394 31.0002 242.047 31.0002H473.372C514.965 31.0002 548.709 64.8044 548.709 106.47C548.709 148.196 514.965 182 473.372 182Z" fill="#4EB387"/>
<path opacity="0.702" d="M190.531 159.739C219.938 130.332 219.938 82.6533 190.531 53.2463C161.123 23.8392 113.445 23.8392 84.0382 53.2463C54.6311 82.6533 54.6311 130.332 84.0382 159.739C113.445 189.146 161.123 189.146 190.531 159.739Z" fill="#3F9A74"/>
<path opacity="0.502" d="M235.723 159.74C265.13 130.333 265.13 82.6543 235.723 53.2472C206.316 23.8402 158.638 23.8402 129.231 53.2472C99.824 82.6543 99.824 130.333 129.231 159.74C158.638 189.147 206.316 189.147 235.723 159.74Z" fill="#3F9A74"/>
<path opacity="0.2" d="M107.893 179.754C148.367 170.197 173.43 129.639 163.873 89.1657C154.316 48.692 113.758 23.6291 73.2841 33.186C32.8104 42.743 7.74746 83.3009 17.3044 123.775C26.8614 164.248 67.4193 189.311 107.893 179.754Z" fill="#83C4A6"/>
</svg>
