<svg xmlns="http://www.w3.org/2000/svg" xmlns:xlink="http://www.w3.org/1999/xlink"><symbol id="icon-calendar" viewBox="0 0 24 24">
<path fill-rule="evenodd" clip-rule="evenodd" d="M19 3H20C21.1 3 22 3.9 22 5V21C22 22.1 21.1 23 20 23H4C2.9 23 2 22.1 2 21V5C2 3.9 2.9 3 4 3H5V2C5 1.45 5.45 1 6 1C6.55 1 7 1.45 7 2V3H17V2C17 1.45 17.45 1 18 1C18.55 1 19 1.45 19 2V3ZM5 21H19C19.55 21 20 20.55 20 20V8H4V20C4 20.55 4.45 21 5 21Z" fill="white"/>
</symbol><symbol id="icon-heart" viewBox="0 0 91 91"><g><path d="M64.666,30.208c-2.195-1.816-5.014-2.814-7.936-2.814c-3.375,0-6.642,1.342-8.962,3.686   c-0.417,0.422-0.808,0.875-1.175,1.367c-2.841-3.781-7.588-5.721-12.283-4.863c-3.896,0.707-6.959,2.848-9.098,6.359   c-3.018,4.957-3.265,9.738-0.73,14.211c1.355,2.393,3.113,4.725,5.375,7.129c4.143,4.404,9.047,8.584,15.434,13.15   c0.408,0.293,0.845,0.441,1.301,0.441c0.702,0,1.176-0.355,1.411-0.529c5.763-4.115,10.29-7.908,14.248-11.943   c2.21-2.252,4.718-5.02,6.552-8.477c0.786-1.477,1.682-3.465,1.629-5.736C70.314,37.302,68.375,33.271,64.666,30.208z    M65.801,46.331c-1.633,3.074-3.937,5.611-5.977,7.689c-3.66,3.732-7.845,7.264-13.238,11.158   c-5.869-4.246-10.412-8.145-14.252-12.229c-2.073-2.203-3.674-4.32-4.895-6.475c-1.933-3.41-1.718-6.832,0.678-10.764   c1.612-2.648,3.9-4.258,6.802-4.785c0.556-0.102,1.119-0.152,1.674-0.152c3.44,0,6.487,1.9,8.208,5.199l0.292,0.551   c0.3,0.563,0.918,0.883,1.528,0.898c0.639-0.012,1.216-0.377,1.497-0.951c0.604-1.232,1.263-2.188,2.067-3.002   c1.686-1.701,4.071-2.678,6.545-2.678c2.133,0,4.182,0.723,5.771,2.037c2.956,2.441,4.438,5.531,4.533,9.439   C67.067,43.741,66.43,45.147,65.801,46.331z" fill="#e7401d"/></g></symbol><symbol id="icon-location" viewBox="0 0 24 24">
<path fill-rule="evenodd" clip-rule="evenodd" d="M4.30005 8.7C4.30005 4.443 7.74305 1 12 1C16.257 1 19.7 4.443 19.7 8.7C19.7 14.475 12 23 12 23C12 23 4.30005 14.475 4.30005 8.7ZM8.00006 9C8.00006 6.79086 9.79092 5 12.0001 5C13.4291 5 14.7496 5.7624 15.4642 7C16.1787 8.2376 16.1787 9.7624 15.4642 11C14.7496 12.2376 13.4291 13 12.0001 13C9.79092 13 8.00006 11.2091 8.00006 9Z" fill="white"/>
</symbol></svg>