<svg width="100" height="100" viewBox="0 0 100 100" fill="none" xmlns="http://www.w3.org/2000/svg">
<g clip-path="url(#clip0_0:516)">
<path d="M99.9998 30.6203C100.031 22.5903 96.4543 16.7037 89.1621 13.2245C84.6876 11.0811 79.919 9.88514 74.9646 9.49684C71.961 9.26386 69.2051 10.1181 66.6505 11.6558C63.3992 13.6128 59.9466 15.0262 56.1689 15.5854C52.1125 16.1911 48.056 16.2688 43.9842 15.896C38.6737 15.4145 33.5954 13.8303 28.4552 12.5256C26.3341 11.9975 24.182 11.5626 22.0145 11.3451C17.3852 10.8792 13.2204 12.3547 9.16403 14.4981C5.4792 16.4396 3.37358 19.5305 2.0266 23.2737C-0.15643 29.3001 -0.698317 35.4507 1.00476 41.6946C2.04208 45.5154 4.1477 48.7772 6.79521 51.6506C9.44271 54.524 12.1676 57.3042 15.0009 59.9912C20.265 65.0081 24.4762 70.817 28.2539 76.9987C30.2976 80.3226 32.3258 83.6775 35.1746 86.3956C39.5562 90.5736 44.6654 93.1054 50.8429 92.9966C55.5031 92.919 59.5595 91.1173 63.1979 88.306C66.635 85.6345 69.4838 82.4194 71.7752 78.7072C73.339 76.16 74.9956 73.6438 76.4354 71.0189C79.2223 65.9244 82.8452 61.5289 87.041 57.5682C88.9608 55.7665 90.8187 53.8872 92.6146 51.9767C95.0609 49.3829 96.7949 46.3852 97.8168 42.9371C98.9934 38.9144 99.9534 34.8761 99.9998 30.6203Z" fill="#F3FAFE"/>
<path d="M64.0513 37.7007C64.0513 36.5842 64.0318 35.641 64.0513 34.717C64.0708 33.4658 64.7149 32.8306 65.9834 32.8114C66.5689 32.8114 67.1544 32.7921 67.7398 32.8114C69.0084 32.8306 69.6524 33.4466 69.6719 34.717C69.6914 36.642 69.711 38.5669 69.6524 40.4918C69.6329 41.1848 69.8476 41.6083 70.4526 41.9548C71.5455 42.59 72.5798 43.3215 73.6142 44.0144C75.0388 44.9769 75.3706 46.4783 74.4924 47.7488C73.7117 48.8845 71.9163 49.2117 70.6868 48.2685C70.4135 48.0568 70.1013 47.9028 69.6524 47.6333C69.6524 48.1145 69.6524 48.461 69.6524 48.7883C69.6524 54.563 69.6524 60.3378 69.6524 66.1126C69.6524 68.1915 68.8523 68.9615 66.7836 68.9807C65.3589 68.9807 64.9147 68.9807 63.49 68.9807C63.2949 68.9807 63.0997 69 62.9046 68.9807C62.4362 68.9422 62.0849 68.7498 62.0849 68.2108C62.1044 67.691 62.4752 67.4986 62.9436 67.4793C64.4658 67.4601 65.0076 67.4793 66.5299 67.4793C66.8226 67.4793 67.1153 67.4793 67.4081 67.4793C67.8765 67.4601 68.1106 67.2098 68.1302 66.7478C68.1302 66.5168 68.1302 66.3051 68.1302 66.0741C68.1302 59.9143 68.1106 53.7546 68.1497 47.5948C68.1497 46.8826 67.974 46.4591 67.33 46.0356C61.7875 42.436 56.284 38.8171 50.7804 35.1598C50.1754 34.7555 49.7656 34.7555 49.1606 35.1598C43.6376 38.8171 38.095 42.4552 32.533 46.0741C31.9865 46.4398 31.7914 46.8248 31.7914 47.4601C31.8109 53.6583 31.8109 59.8373 31.8109 66.0356C31.8109 67.4408 31.8304 67.4601 33.216 67.4601C41.4518 67.4601 48.668 67.4601 56.9038 67.4601C57.1575 67.4601 57.4307 67.4601 57.6844 67.4601C58.1528 67.4793 58.5236 67.6525 58.5431 68.1723C58.5626 68.7498 58.1528 68.923 57.6454 68.9422C57.4893 68.9422 57.3136 68.9422 57.1575 68.9422C48.8046 68.9422 41.4323 68.9422 33.0794 68.9422C31.1278 68.9422 30.3082 68.1145 30.3082 66.1896C30.3082 60.3763 30.3082 54.5823 30.3082 48.769C30.3082 48.4225 30.3082 48.0953 30.3082 47.5948C29.7812 47.9028 29.4104 48.153 29.0396 48.3648C27.7516 49.1155 26.1903 48.7883 25.4292 47.6333C24.6485 46.4206 24.9413 44.9384 26.2098 44.0914C28.8445 42.3205 31.4986 40.6073 34.1528 38.8556C34.6212 38.5476 35.0505 38.4321 35.4018 38.9904C35.7141 39.5101 35.3628 39.8181 34.953 40.0876C32.4939 41.743 30.0349 43.36 27.5759 44.9769C27.3417 45.1309 27.088 45.2849 26.8733 45.4966C26.444 45.9009 26.405 46.4206 26.7172 46.9018C27.0295 47.3831 27.5174 47.5563 28.0833 47.2868C28.3761 47.1521 28.6493 46.9596 28.9225 46.7863C35.5775 42.3975 42.2519 38.0087 48.9264 33.6198C49.9803 32.9269 49.9803 32.9269 51.0732 33.6198C57.7281 37.9894 64.3831 42.359 71.0185 46.7286C71.2527 46.8826 71.4869 47.0751 71.7601 47.2098C72.3456 47.5178 72.9896 47.3831 73.3019 46.9018C73.6142 46.4206 73.4971 45.7854 72.9701 45.3619C72.7945 45.2271 72.5993 45.1116 72.4042 44.9769C65.3199 40.3186 58.2355 35.6602 51.1512 31.0212C50.0583 30.309 49.9217 30.309 48.8093 31.0404C45.2574 33.3696 41.725 35.6987 38.1731 38.0087C37.7047 38.3166 37.1973 38.7979 36.6313 38.1819C36.2605 37.7969 36.5142 37.3349 37.3729 36.7767C40.9444 34.4475 44.5158 32.0991 48.0872 29.7507C49.629 28.7498 50.3706 28.7498 51.9124 29.7507C55.5814 32.1569 59.2699 34.5823 62.9389 36.9885C63.2707 37.2194 63.6025 37.4119 64.0513 37.7007ZM65.5736 34.2936C65.5736 35.6987 65.5541 37.0269 65.5931 38.3744C65.5931 38.5669 65.7297 38.8171 65.8858 38.9326C66.5884 39.4139 67.3105 39.8566 68.1106 40.3571C68.1106 38.2782 68.1106 36.3147 68.1106 34.2936C67.2519 34.2936 66.4518 34.2936 65.5736 34.2936Z" fill="#84CDEC" stroke="#84CDEC"/>
<path d="M42.3303 59.9337C42.3303 58.875 42.7206 57.9511 43.5012 57.2004C43.9891 56.7191 44.438 56.2186 44.9844 55.8144C45.1991 55.6412 45.6675 55.6027 45.9212 55.7182C46.331 55.9107 46.3701 56.3341 46.0969 56.6999C45.9017 56.9501 45.687 57.2004 45.4723 57.4313C45.1796 57.7201 44.8283 57.9703 44.5356 58.2783C43.6769 59.1445 43.5207 60.4727 44.1453 61.3582C44.7307 62.1859 45.9212 62.5324 47.0336 62.0319C48.3022 61.4544 49.6097 61.0695 50.9954 61.3582C51.815 61.5314 52.5762 61.9357 53.3763 62.1667C55.0742 62.6671 56.5769 61.2812 56.1476 59.5873C56.011 59.0868 55.7573 58.5093 55.3474 58.2013C54.2545 57.3543 53.63 56.2571 53.1226 55.0059C52.381 53.2158 51.3662 52.5035 49.7659 52.6768C49.1413 52.7345 48.5364 53.1388 47.9314 53.4275C47.7167 53.543 47.5801 53.7932 47.4044 53.9857C47.0922 54.3322 46.7409 54.544 46.3115 54.1782C45.9212 53.8317 46.0188 53.4467 46.2725 53.0618C47.0922 51.7721 48.9852 50.9443 50.5855 51.1753C52.3615 51.4256 53.5715 52.4265 54.2741 53.9857C54.8595 55.2947 55.5621 56.4304 56.6355 57.4121C57.904 58.5863 58.0211 60.7615 57.1039 62.1089C56.1476 63.5141 54.2155 64.1686 52.5176 63.3986C50.8002 62.6094 49.2389 62.5901 47.502 63.3794C46.0188 64.0723 44.4965 63.7836 43.2865 62.5901C42.5449 61.8779 42.2912 60.954 42.3303 59.9337Z" fill="#84CDEC" stroke="#84CDEC"/>
<path d="M46.2725 50.6748C45.7456 50.4438 45.1796 50.3091 44.7112 49.9818C43.1304 48.9039 42.4669 46.4592 43.228 44.7268C44.0086 42.9366 45.9407 42.4746 47.4825 43.6873C48.9072 44.823 49.5317 46.9404 48.9267 48.6344C48.4973 49.8663 47.541 50.5785 46.2725 50.6748ZM47.6581 47.2292C47.6386 46.2667 47.3068 45.4005 46.5262 44.8038C45.7651 44.2263 44.9064 44.4765 44.5746 45.362C44.1648 46.4784 44.438 47.4987 45.1601 48.4034C45.5309 48.8654 45.9993 49.2503 46.6433 49.0771C47.3849 48.8846 47.5801 48.2686 47.6581 47.5949C47.6776 47.4794 47.6581 47.3447 47.6581 47.2292Z" fill="#84CDEC" stroke="#84CDEC"/>
<path d="M57.0647 46.3052C57.0647 47.7104 56.5768 48.8654 55.562 49.7701C53.9031 51.233 51.6393 50.617 51.0343 48.4996C50.5464 46.7864 50.9562 45.2657 52.2053 43.976C52.9859 43.1676 53.9617 42.7633 55.1131 43.1291C56.3036 43.5141 56.811 44.4573 57.0257 45.5737C57.0647 45.8432 57.0452 46.1127 57.0647 46.3052ZM55.6401 46.2667C55.601 46.0742 55.562 45.824 55.4839 45.5737C55.1327 44.4188 54.1569 44.1493 53.2786 44.9578C52.4199 45.7277 52.0686 47.3062 52.537 48.3071C52.9273 49.1733 53.6494 49.3658 54.4106 48.8269C55.2693 48.2109 55.523 47.3062 55.6401 46.2667Z" fill="#84CDEC" stroke="#84CDEC"/>
<path d="M40.4957 49.154C42.9548 49.2118 44.8868 52.5804 43.6768 54.6786C43.1694 55.5833 42.1351 56.0645 41.1203 55.872C39.0125 55.5255 37.4122 52.8691 38.0758 50.848C38.4466 49.7315 39.3248 49.1348 40.4957 49.154ZM39.4028 51.5987C39.4614 52.8691 39.9103 53.6776 40.7885 54.1588C41.1398 54.3513 41.7448 54.4283 42.0375 54.2551C42.3302 54.0818 42.5449 53.5044 42.5449 53.1194C42.5254 52.1762 42.057 51.3677 41.2373 50.9057C40.8861 50.7132 40.3201 50.617 39.9883 50.771C39.6566 50.9057 39.5199 51.4254 39.4028 51.5987Z" fill="#84CDEC" stroke="#84CDEC"/>
<path d="M59.5824 49.1541C60.929 49.1541 61.9048 50.078 62.0805 51.4832C62.2756 53.3119 60.8705 55.3523 59.075 55.8143C57.9821 56.103 56.8892 55.6411 56.3233 54.6786C55.0742 52.5612 57.0844 49.1541 59.5824 49.1541ZM60.5777 51.5795C60.4802 51.4255 60.324 50.9057 60.0118 50.7517C59.68 50.5977 59.114 50.694 58.7628 50.8865C57.9236 51.3677 57.4552 52.1569 57.4357 53.1002C57.4357 53.4851 57.6308 54.0626 57.9431 54.2359C58.2358 54.4091 58.8603 54.3321 59.1921 54.1396C60.0898 53.6776 60.5387 52.8692 60.5777 51.5795Z" fill="#84CDEC" stroke="#84CDEC"/>
</g>
<defs>
<clipPath id="clip0_0:516">
<rect width="100" height="100" fill="white"/>
</clipPath>
</defs>
</svg>
